<?xml version="1.0" encoding="UTF-8" standalone="no"?>
<!-- Created with Inkscape (http://www.inkscape.org/) -->

<svg
   width="1000.0001"
   height="250.00002"
   viewBox="0 0 264.58335 66.145837"
   version="1.1"
   id="svg5"
   xml:space="preserve"
   xmlns="http://www.w3.org/2000/svg"
   xmlns:svg="http://www.w3.org/2000/svg"><defs
     id="defs2"><style
       id="style6568">.cls-1{fill:none;}.cls-2{clip-path:url(#clip-path);}</style><style
       id="style6568-5">.cls-1{fill:none;}.cls-2{clip-path:url(#clip-path);}</style><style
       id="style6568-9">.cls-1{fill:none;}.cls-2{clip-path:url(#clip-path);}</style><style
       id="style22571">.cls-1{fill:#84d0f7;}.cls-2{fill:#aa392d;}.cls-3{fill:#7c211a;}.cls-4{fill:#e59973;}.cls-5{fill:#2d2d2d;}.cls-6{opacity:0.2;}.cls-7{opacity:0.3;}</style><style
       id="style23309">
      .cls-1 {
        fill: none;
      }
    </style><style
       id="style6568-7">.cls-1{fill:none;}.cls-2{clip-path:url(#clip-path);}</style><style
       id="style6568-5-5">.cls-1{fill:none;}.cls-2{clip-path:url(#clip-path);}</style><style
       id="style6568-9-3">.cls-1{fill:none;}.cls-2{clip-path:url(#clip-path);}</style><style
       id="style22571-5">.cls-1{fill:#84d0f7;}.cls-2{fill:#aa392d;}.cls-3{fill:#7c211a;}.cls-4{fill:#e59973;}.cls-5{fill:#2d2d2d;}.cls-6{opacity:0.2;}.cls-7{opacity:0.3;}</style><style
       id="style23309-6">
      .cls-1 {
        fill: none;
      }
    </style><style
       id="style1-9">
      .cls-1 {
        fill: none;
      }
    </style><style
       id="style1-8">.cls-1{fill:none;stroke:#020202;stroke-miterlimit:10;stroke-width:1.83px;}</style></defs><g
     id="layer1"
     transform="translate(-1289.8531,-1054.2557)"><g
       id="g241"
       transform="matrix(0.37338259,0,0,0.37338259,169.40648,-936.3362)"><path
         style="fill:#00ccff;fill-opacity:1;stroke-width:0.310059"
         d="m 3082.5577,5342.0682 c -43.7675,0 -79.375,35.6074 -79.375,79.375 0,43.7675 35.6075,79.375 79.375,79.375 43.7676,0 79.375,-35.6075 79.375,-79.375 0,-43.7676 -35.6074,-79.375 -79.375,-79.375 z"
         id="path163" /><path
         d="m 3069.3327,5373.0986 c 0,0 -9.9792,-1.3761 -17.0325,5.6772 -7.0535,7.0535 -5.6774,17.032 -5.6774,17.032"
         stroke="#1c274c"
         stroke-width="12.0434"
         stroke-linecap="round"
         id="path165"
         style="fill:none;stroke:#a8eeff;stroke-opacity:1" /><path
         d="m 3084.5397,5391.8519 8.0339,-8.0339"
         stroke="#1c274c"
         stroke-width="12.0509"
         stroke-linecap="round"
         id="path166"
         style="fill:none;fill-opacity:1;stroke:#80e3ff;stroke-opacity:1" /><path
         d="m 3082.5806,5428.9717 h -5.88 c -0.252,-0.7373 -0.5478,-1.4535 -0.8892,-2.1447 l 4.1585,-4.1585 c 2.2814,-2.2811 2.2814,-5.9804 0,-8.2618 -2.2811,-2.2811 -5.9804,-2.2811 -8.2618,0 l -4.1579,4.1579 c -0.6914,-0.3411 -1.408,-0.6372 -2.1453,-0.8892 v -5.88 c 0,-3.2265 -2.6157,-5.8421 -5.8421,-5.8421 -3.2265,0 -5.8422,2.6156 -5.8422,5.8421 v 5.88 c -0.7373,0.252 -1.4538,0.5478 -2.1453,0.8892 l -4.1578,-4.1579 c -2.2811,-2.2811 -5.9805,-2.2811 -8.2619,0 -2.2814,2.2811 -2.2814,5.9804 0,8.2618 l 4.1585,4.1585 c -0.341,0.6915 -0.6371,1.4077 -0.8892,2.1447 h -5.8803 c -3.2264,0 -5.8421,2.6157 -5.8421,5.8421 0,3.2265 2.6157,5.8422 5.8421,5.8422 h 5.88 c 0.2521,0.7373 0.5479,1.4538 0.8892,2.1453 l -4.1579,4.1585 c -2.2814,2.2811 -2.2814,5.9804 0,8.2618 2.2821,2.2814 5.9805,2.2814 8.2619,0 l 4.1585,-4.1585 c 0.6914,0.341 1.4076,0.6372 2.1446,0.8892 v 5.88 c 0,3.2265 2.6157,5.8421 5.8422,5.8421 3.2264,0 5.8421,-2.6156 5.8421,-5.8421 v -5.88 c 0.7373,-0.252 1.4536,-0.5478 2.1447,-0.8892 l 4.1585,4.1585 c 2.2814,2.2814 5.9804,2.2814 8.2618,0 2.2814,-2.2811 2.2814,-5.9804 0,-8.2618 l -4.1585,-4.1585 c 0.3411,-0.6915 0.6372,-1.408 0.8892,-2.1453 h 5.88 c 3.2265,0 5.8421,-2.6157 5.8421,-5.8422 0,-3.2264 -2.6156,-5.8421 -5.8424,-5.8421 z m -23.0178,12.2684 c -3.5434,0 -6.4263,-2.8829 -6.4263,-6.4263 0,-3.5433 2.8829,-6.4262 6.4263,-6.4262 3.5433,0 6.4262,2.8829 6.4262,6.4262 0,3.5434 -2.8829,6.4263 -6.4262,6.4263 z"
         id="path167"
         style="fill:#f5fdff;fill-opacity:1;stroke-width:0.310059" /><path
         d="m 3119.0624,5391.9954 c -9.7355,0 -17.656,7.9207 -17.656,17.6563 0,9.7355 7.9205,17.6559 17.656,17.6559 9.7355,0 17.6563,-7.9204 17.6563,-17.6559 0,-9.7356 -7.9205,-17.6563 -17.6563,-17.6563 z m 0,23.628 c -3.2931,0 -5.9717,-2.6789 -5.9717,-5.9717 0,-3.2929 2.6789,-5.9721 5.9717,-5.9721 3.2928,0 5.972,2.6792 5.972,5.9721 0,3.2928 -2.6789,5.9717 -5.972,5.9717 z"
         id="path168"
         style="fill:#c2f3ff;fill-opacity:1;stroke-width:0.310059" /><path
         d="m 3120.8088,5444.9084 c -0.4639,-3.3129 -3.5279,-5.6237 -6.8392,-5.1585 -3.3129,0.4639 -5.6225,3.5257 -5.1586,6.8392 l 0.6491,4.6352 h -6.4959 c -3.3453,0 -6.0574,2.712 -6.0574,6.0574 0,3.3453 2.7121,6.0574 6.0574,6.0574 h 13.4612 c 3.6803,0 6.5084,-3.2586 5.9989,-6.8978 z"
         id="path169"
         style="fill:#8fe9ff;fill-opacity:1;stroke-width:0.321484" /></g><g
       id="text291-4"
       style="font-weight:800;font-size:39.5435px;font-family:'Geist Mono';-inkscape-font-specification:'Geist Mono Ultra-Bold';letter-spacing:0px;stroke-width:0.337019"
       aria-label="CAMBRIAN"><path
         style="font-weight:bold;font-family:'Space Mono';-inkscape-font-specification:'Space Mono Bold'"
         d="m 1372.7019,1097.6308 q 1.5026,0 2.4517,-0.435 0.9885,-0.4745 1.5026,-1.2259 0.5536,-0.7908 0.7513,-1.7794 0.1978,-1.0281 0.1978,-2.0958 v -0.7118 h 5.2197 v 0.7118 q 0,4.9429 -2.6099,7.6319 -2.5703,2.6494 -7.5132,2.6494 -4.7453,0 -7.5133,-2.8867 -2.7681,-2.8867 -2.7681,-8.4227 v -6.1688 q 0,-2.6494 0.7118,-4.7452 0.7118,-2.1354 2.0563,-3.559 1.3445,-1.4631 3.2426,-2.2144 1.898,-0.7909 4.2707,-0.7909 2.4517,0 4.3497,0.7118 1.8981,0.7118 3.1635,2.0563 1.305,1.3445 1.9377,3.2425 0.6722,1.8981 0.6722,4.2707 v 0.7118 h -5.2197 v -0.7118 q 0,-0.9885 -0.2373,-1.9771 -0.2373,-0.9886 -0.7909,-1.7795 -0.5536,-0.7909 -1.5026,-1.2654 -0.9491,-0.5141 -2.3726,-0.5141 -1.305,0 -2.254,0.5141 -0.9491,0.4745 -1.5818,1.3445 -0.6327,0.8304 -0.949,1.9772 -0.2768,1.1072 -0.2768,2.333 v 6.9597 q 0,1.3445 0.2768,2.4912 0.2768,1.1072 0.87,1.9377 0.5931,0.8304 1.5421,1.3049 0.9886,0.435 2.3727,0.435 z"
         id="path380" /><path
         style="font-weight:bold;font-family:'Space Mono';-inkscape-font-specification:'Space Mono Bold';letter-spacing:1.77824px"
         d="m 1401.529,1095.8909 h -9.4113 l -1.3445,5.9315 h -5.457 l 6.6038,-27.6805 h 9.8068 l 6.6037,27.6805 h -5.457 z m -8.3041,-4.9825 h 7.1574 l -3.203,-14.1566 h -0.7118 z"
         id="path381" /><path
         style="font-weight:bold;font-family:'Space Mono';-inkscape-font-specification:'Space Mono Bold';letter-spacing:1.48187px"
         d="m 1411.5719,1074.1419 h 9.1741 l 1.5817,20.7999 v 4.0335 h 0.949 v -4.0335 l 1.5818,-20.7999 h 9.1741 v 27.6805 h -4.7453 v -18.5064 l 0.4746,-6.3269 h -0.9491 l -2.0562,24.8333 h -7.8296 l -2.1354,-24.8333 h -0.949 l 0.4745,6.3269 v 18.5064 h -4.7452 z"
         id="path382" /><path
         style="font-weight:bold;font-family:'Space Mono';-inkscape-font-specification:'Space Mono Bold';letter-spacing:-0.987908px"
         d="m 1438.2034,1096.8399 h 2.6098 v -17.7155 h -2.6098 v -4.9825 h 12.1398 q 1.9772,0 3.4799,0.5536 1.5422,0.5537 2.5703,1.5027 1.0677,0.949 1.5817,2.2935 0.5536,1.305 0.5536,2.8472 v 0.4745 q 0,2.3726 -1.3444,3.7962 -1.305,1.4235 -3.3217,1.9771 v 0.7118 q 2.0167,0.5536 3.3217,2.0167 1.3444,1.4236 1.3444,3.7962 v 0.4745 q 0,1.5422 -0.5536,2.8867 -0.514,1.3049 -1.5817,2.2935 -1.0281,0.9491 -2.5703,1.5027 -1.5027,0.5536 -3.4799,0.5536 h -12.1398 z m 7.8296,0 h 3.7962 q 1.6608,0 2.6889,-0.7118 1.0282,-0.7118 1.0282,-2.3726 v -0.2372 q 0,-1.6609 -1.0282,-2.3727 -1.0281,-0.7117 -2.6889,-0.7117 h -3.7962 z m 0,-11.3885 h 3.7962 q 1.6608,0 2.6889,-0.6723 1.0282,-0.7117 1.0282,-2.3726 v -0.2372 q 0,-1.6609 -1.0282,-2.3331 -1.0281,-0.7118 -2.6889,-0.7118 h -3.7962 z"
         id="path383" /><path
         style="font-weight:bold;font-family:'Space Mono';-inkscape-font-specification:'Space Mono Bold';letter-spacing:-1.48187px"
         d="m 1481.0692,1101.8224 h -5.2198 v -8.3041 q 0,-0.9491 -0.514,-1.5422 -0.4745,-0.5932 -1.6213,-0.5932 h -6.0106 v 10.4395 h -5.2198 v -27.6805 h 10.5977 q 2.1354,0 3.7566,0.5932 1.6213,0.5931 2.689,1.6608 1.1072,1.0281 1.6608,2.4122 0.5932,1.384 0.5932,2.9657 v 0.9491 q 0,1.7003 -0.9095,3.203 -0.9095,1.4631 -2.8076,2.254 v 0.7118 q 1.384,0.1581 2.1749,1.0676 0.8304,0.9095 0.8304,2.2936 z m -13.3657,-15.422 h 4.9825 q 1.8981,0 2.8866,-0.8699 0.9886,-0.9095 0.9886,-2.5308 v -0.4745 q 0,-1.3841 -0.9886,-2.3726 -0.9885,-1.0282 -2.8866,-1.0282 h -4.9825 z"
         id="path384" /><path
         style="font-weight:bold;font-family:'Space Mono';-inkscape-font-specification:'Space Mono Bold'"
         d="m 1485.1629,1074.1419 h 18.5064 v 4.9825 h -6.6433 v 17.7155 h 6.6433 v 4.9825 h -18.5064 v -4.9825 h 6.6433 v -17.7155 h -6.6433 z"
         id="path385" /><path
         style="font-weight:bold;font-family:'Space Mono';-inkscape-font-specification:'Space Mono Bold';letter-spacing:0.493956px"
         d="m 1523.3224,1095.8909 h -9.4114 l -1.3444,5.9315 h -5.457 l 6.6037,-27.6805 h 9.8068 l 6.6038,27.6805 h -5.457 z m -8.3041,-4.9825 h 7.1573 l -3.203,-14.1566 h -0.7118 z"
         id="path386" /><path
         style="font-weight:bold;font-family:'Space Mono';-inkscape-font-specification:'Space Mono Bold'"
         d="m 1547.0679,1099.2125 h 0.7118 v -25.0706 h 5.2197 v 27.6805 h -10.2022 l -3.2426,-25.0706 h -0.7118 v 25.0706 h -5.2197 v -27.6805 h 10.2022 z"
         id="path387" /></g></g><style
     type="text/css"
     id="style1941">
	.st0{fill:none;stroke:#000000;stroke-width:2;stroke-linecap:round;stroke-linejoin:round;stroke-miterlimit:10;}
</style><style
     type="text/css"
     id="style1941-0">
	.st0{fill:none;stroke:#000000;stroke-width:2;stroke-linecap:round;stroke-linejoin:round;stroke-miterlimit:10;}
</style><style
     type="text/css"
     id="style1941-7">
	.st0{fill:none;stroke:#000000;stroke-width:2;stroke-linecap:round;stroke-linejoin:round;stroke-miterlimit:10;}
</style><style
     type="text/css"
     id="style22485">
	.st0{fill:none;stroke:#6C3DB7;stroke-width:4;stroke-linecap:round;stroke-linejoin:round;stroke-miterlimit:10;}
	.st1{fill:none;stroke:#1F992A;stroke-width:4;stroke-linecap:round;stroke-linejoin:round;stroke-miterlimit:10;}
	.st2{fill:none;stroke:#6A83BA;stroke-width:4;stroke-linecap:round;stroke-linejoin:round;stroke-miterlimit:10;}
	.st3{fill:#8A8AFF;stroke:#8A8AFF;stroke-width:2;stroke-linecap:round;stroke-linejoin:round;stroke-miterlimit:10;}
	.st4{fill:#6C3DB7;stroke:#6C3DB7;stroke-width:2;stroke-linecap:round;stroke-linejoin:round;stroke-miterlimit:10;}
	.st5{fill:#A576FF;stroke:#A576FF;stroke-width:2;stroke-linecap:round;stroke-linejoin:round;stroke-miterlimit:10;}
	.st6{fill:#F2BB41;stroke:#F2BB41;stroke-width:2;stroke-linecap:round;stroke-linejoin:round;stroke-miterlimit:10;}
	.st7{fill:#E08838;stroke:#E08838;stroke-width:2;stroke-linecap:round;stroke-linejoin:round;stroke-miterlimit:10;}
	.st8{fill:#1F992A;stroke:#1F992A;stroke-width:2;stroke-linecap:round;stroke-linejoin:round;stroke-miterlimit:10;}
	.st9{fill:#5EC11E;stroke:#5EC11E;stroke-width:2;stroke-linecap:round;stroke-linejoin:round;stroke-miterlimit:10;}
	.st10{fill:#E3FAFF;stroke:#E3FAFF;stroke-width:2;stroke-linecap:round;stroke-linejoin:round;stroke-miterlimit:10;}
	.st11{fill:#FF5093;stroke:#FF5093;stroke-width:2;stroke-linecap:round;stroke-linejoin:round;stroke-miterlimit:10;}
	.st12{fill:#B7257F;stroke:#B7257F;stroke-width:2;stroke-linecap:round;stroke-linejoin:round;stroke-miterlimit:10;}
	.st13{fill:#5189E5;stroke:#5189E5;stroke-width:2;stroke-linecap:round;stroke-linejoin:round;stroke-miterlimit:10;}
	.st14{fill:#6EBAFF;stroke:#6EBAFF;stroke-width:2;stroke-linecap:round;stroke-linejoin:round;stroke-miterlimit:10;}
	.st15{fill:#EDD977;stroke:#EDD977;stroke-width:2;stroke-linecap:round;stroke-linejoin:round;stroke-miterlimit:10;}
	.st16{fill:#8C43FF;stroke:#8C43FF;stroke-width:2;stroke-linecap:round;stroke-linejoin:round;stroke-miterlimit:10;}
	.st17{fill:#5252BA;stroke:#5252BA;stroke-width:2;stroke-linecap:round;stroke-linejoin:round;stroke-miterlimit:10;}
	.st18{fill:none;stroke:#E3FAFF;stroke-width:4;stroke-linecap:round;stroke-linejoin:round;stroke-miterlimit:10;}
	.st19{fill:#354C75;stroke:#354C75;stroke-width:2;stroke-linecap:round;stroke-linejoin:round;stroke-miterlimit:10;}
</style><style
     type="text/css"
     id="style23106">
	.st0{fill:none;stroke:#000000;stroke-width:2;stroke-linecap:round;stroke-linejoin:round;stroke-miterlimit:10;}
	.st1{fill:none;stroke:#000000;stroke-width:2;stroke-linejoin:round;stroke-miterlimit:10;}
</style><style
     type="text/css"
     id="style1941-1">
	.st0{fill:none;stroke:#000000;stroke-width:2;stroke-linecap:round;stroke-linejoin:round;stroke-miterlimit:10;}
</style><style
     type="text/css"
     id="style1941-0-8">
	.st0{fill:none;stroke:#000000;stroke-width:2;stroke-linecap:round;stroke-linejoin:round;stroke-miterlimit:10;}
</style><style
     type="text/css"
     id="style1941-7-7">
	.st0{fill:none;stroke:#000000;stroke-width:2;stroke-linecap:round;stroke-linejoin:round;stroke-miterlimit:10;}
</style><style
     type="text/css"
     id="style22485-9">
	.st0{fill:none;stroke:#6C3DB7;stroke-width:4;stroke-linecap:round;stroke-linejoin:round;stroke-miterlimit:10;}
	.st1{fill:none;stroke:#1F992A;stroke-width:4;stroke-linecap:round;stroke-linejoin:round;stroke-miterlimit:10;}
	.st2{fill:none;stroke:#6A83BA;stroke-width:4;stroke-linecap:round;stroke-linejoin:round;stroke-miterlimit:10;}
	.st3{fill:#8A8AFF;stroke:#8A8AFF;stroke-width:2;stroke-linecap:round;stroke-linejoin:round;stroke-miterlimit:10;}
	.st4{fill:#6C3DB7;stroke:#6C3DB7;stroke-width:2;stroke-linecap:round;stroke-linejoin:round;stroke-miterlimit:10;}
	.st5{fill:#A576FF;stroke:#A576FF;stroke-width:2;stroke-linecap:round;stroke-linejoin:round;stroke-miterlimit:10;}
	.st6{fill:#F2BB41;stroke:#F2BB41;stroke-width:2;stroke-linecap:round;stroke-linejoin:round;stroke-miterlimit:10;}
	.st7{fill:#E08838;stroke:#E08838;stroke-width:2;stroke-linecap:round;stroke-linejoin:round;stroke-miterlimit:10;}
	.st8{fill:#1F992A;stroke:#1F992A;stroke-width:2;stroke-linecap:round;stroke-linejoin:round;stroke-miterlimit:10;}
	.st9{fill:#5EC11E;stroke:#5EC11E;stroke-width:2;stroke-linecap:round;stroke-linejoin:round;stroke-miterlimit:10;}
	.st10{fill:#E3FAFF;stroke:#E3FAFF;stroke-width:2;stroke-linecap:round;stroke-linejoin:round;stroke-miterlimit:10;}
	.st11{fill:#FF5093;stroke:#FF5093;stroke-width:2;stroke-linecap:round;stroke-linejoin:round;stroke-miterlimit:10;}
	.st12{fill:#B7257F;stroke:#B7257F;stroke-width:2;stroke-linecap:round;stroke-linejoin:round;stroke-miterlimit:10;}
	.st13{fill:#5189E5;stroke:#5189E5;stroke-width:2;stroke-linecap:round;stroke-linejoin:round;stroke-miterlimit:10;}
	.st14{fill:#6EBAFF;stroke:#6EBAFF;stroke-width:2;stroke-linecap:round;stroke-linejoin:round;stroke-miterlimit:10;}
	.st15{fill:#EDD977;stroke:#EDD977;stroke-width:2;stroke-linecap:round;stroke-linejoin:round;stroke-miterlimit:10;}
	.st16{fill:#8C43FF;stroke:#8C43FF;stroke-width:2;stroke-linecap:round;stroke-linejoin:round;stroke-miterlimit:10;}
	.st17{fill:#5252BA;stroke:#5252BA;stroke-width:2;stroke-linecap:round;stroke-linejoin:round;stroke-miterlimit:10;}
	.st18{fill:none;stroke:#E3FAFF;stroke-width:4;stroke-linecap:round;stroke-linejoin:round;stroke-miterlimit:10;}
	.st19{fill:#354C75;stroke:#354C75;stroke-width:2;stroke-linecap:round;stroke-linejoin:round;stroke-miterlimit:10;}
</style><style
     type="text/css"
     id="style23106-2">
	.st0{fill:none;stroke:#000000;stroke-width:2;stroke-linecap:round;stroke-linejoin:round;stroke-miterlimit:10;}
	.st1{fill:none;stroke:#000000;stroke-width:2;stroke-linejoin:round;stroke-miterlimit:10;}
</style><style
     type="text/css"
     id="style4736">
<![CDATA[
	.st0{fill:#D1D1D1;}
	.st1{fill:#454545;}
]]>
</style><style
     type="text/css"
     id="style1">
	.st0{fill:none;stroke:#000000;stroke-width:2;stroke-linecap:round;stroke-linejoin:round;stroke-miterlimit:10;}
</style><style
     type="text/css"
     id="style1-4">
	.linesandangles_een{fill:#111918;}
</style><style
     type="text/css"
     id="style1-2">
	.st0{fill:#000000;}
</style><style
     type="text/css"
     id="style1-5">
	.st0{fill:#000000;}
</style><style
     type="text/css"
     id="style1-1">
	.st0{fill:#000000;}
</style><style
     type="text/css"
     id="style1-0">
	.st0{fill:#F26E91;}
	.st1{fill:#00A779;}
	.st2{fill:#C4FFC9;}
	.st3{fill:#AB630A;}
	.st4{fill:#C98C40;}
	.st5{fill:#15AA78;}
	.st6{fill:#FF9000;}
	.st7{fill:#FCEECF;}
	.st8{fill:#FFE940;}
	.st9{fill:#F0E3CE;}
	.st10{fill:#FFB5C5;}
	.st11{fill:#91EDFF;}
	.st12{fill:#7191F0;}
	.st13{fill:#363636;}
	.st14{fill:#565656;}
	.st15{fill:#F3DF4D;}
	.st16{fill:#CD4A77;}
	.st17{fill:#577AE6;}
	.st18{fill:#F4D100;}
</style><style
     type="text/css"
     id="style1-56">
	.st0{fill:#000000;}
</style></svg>
