<?xml version="1.0" encoding="UTF-8" standalone="no"?>
<!-- Created with Inkscape (http://www.inkscape.org/) -->

<svg
   width="1000.0001"
   height="250.00002"
   viewBox="0 0 264.58335 66.145837"
   version="1.1"
   id="svg5"
   xml:space="preserve"
   xmlns="http://www.w3.org/2000/svg"
   xmlns:svg="http://www.w3.org/2000/svg"><defs
     id="defs2"><style
       id="style6568">.cls-1{fill:none;}.cls-2{clip-path:url(#clip-path);}</style><style
       id="style6568-5">.cls-1{fill:none;}.cls-2{clip-path:url(#clip-path);}</style><style
       id="style6568-9">.cls-1{fill:none;}.cls-2{clip-path:url(#clip-path);}</style><style
       id="style22571">.cls-1{fill:#84d0f7;}.cls-2{fill:#aa392d;}.cls-3{fill:#7c211a;}.cls-4{fill:#e59973;}.cls-5{fill:#2d2d2d;}.cls-6{opacity:0.2;}.cls-7{opacity:0.3;}</style><style
       id="style23309">
      .cls-1 {
        fill: none;
      }
    </style><style
       id="style6568-7">.cls-1{fill:none;}.cls-2{clip-path:url(#clip-path);}</style><style
       id="style6568-5-5">.cls-1{fill:none;}.cls-2{clip-path:url(#clip-path);}</style><style
       id="style6568-9-3">.cls-1{fill:none;}.cls-2{clip-path:url(#clip-path);}</style><style
       id="style22571-5">.cls-1{fill:#84d0f7;}.cls-2{fill:#aa392d;}.cls-3{fill:#7c211a;}.cls-4{fill:#e59973;}.cls-5{fill:#2d2d2d;}.cls-6{opacity:0.2;}.cls-7{opacity:0.3;}</style><style
       id="style23309-6">
      .cls-1 {
        fill: none;
      }
    </style><style
       id="style1-9">
      .cls-1 {
        fill: none;
      }
    </style><style
       id="style1-8">.cls-1{fill:none;stroke:#020202;stroke-miterlimit:10;stroke-width:1.83px;}</style></defs><g
     id="layer1"
     transform="translate(-1289.8531,-1127.125)"><g
       id="g240"
       transform="matrix(0.11591024,0,0,0.11591024,1088.3748,871.91979)"
       style="fill:#ffffff"><path
         style="fill:#b3f0ff;fill-opacity:1"
         d="m 2001.1386,2223.5985 c -141.159,0 -256,114.841 -256,256 0,141.159 114.841,256 256,256 141.159,0 256,-114.841 256,-256 0,-141.159 -114.841,-256 -256,-256 z"
         id="path82-7" /><path
         d="m 1958.4854,2323.6776 c 0,0 -32.1849,-4.4382 -54.9332,18.3101 -22.7489,22.7489 -18.3107,54.9315 -18.3107,54.9315"
         stroke="#1c274c"
         stroke-width="38.8423"
         stroke-linecap="round"
         id="path2-5-2-3-1"
         style="fill:none;stroke:#66e0ff;stroke-opacity:1" /><path
         d="m 2007.5309,2384.1607 25.911,-25.9109"
         stroke="#1c274c"
         stroke-width="38.8665"
         stroke-linecap="round"
         id="path7-4-5-4"
         style="fill:none;fill-opacity:1;stroke:#66deff;stroke-opacity:1" /><path
         d="m 2001.2123,2503.8795 h -18.964 c -0.813,-2.378 -1.767,-4.688 -2.868,-6.917 l 13.412,-13.412 c 7.358,-7.357 7.358,-19.288 0,-26.646 -7.357,-7.357 -19.288,-7.357 -26.646,0 l -13.41,13.41 c -2.23,-1.1 -4.541,-2.055 -6.919,-2.868 v -18.964 c 0,-10.406 -8.436,-18.842 -18.842,-18.842 -10.406,0 -18.842,8.436 -18.842,18.842 v 18.964 c -2.378,0.813 -4.689,1.767 -6.919,2.868 l -13.41,-13.41 c -7.357,-7.357 -19.288,-7.357 -26.646,0 -7.358,7.357 -7.358,19.288 0,26.646 l 13.412,13.412 c -1.1,2.23 -2.055,4.54 -2.868,6.917 h -18.965 c -10.406,0 -18.842,8.436 -18.842,18.842 0,10.406 8.436,18.842 18.842,18.842 h 18.964 c 0.813,2.378 1.767,4.689 2.868,6.919 l -13.41,13.412 c -7.358,7.357 -7.358,19.288 0,26.646 7.36,7.358 19.288,7.358 26.646,0 l 13.412,-13.412 c 2.23,1.1 4.54,2.055 6.917,2.868 v 18.964 c 0,10.406 8.436,18.842 18.842,18.842 10.406,0 18.842,-8.436 18.842,-18.842 v -18.964 c 2.378,-0.813 4.688,-1.767 6.917,-2.868 l 13.412,13.412 c 7.358,7.358 19.288,7.358 26.646,0 7.358,-7.357 7.358,-19.288 0,-26.646 l -13.412,-13.412 c 1.1,-2.23 2.055,-4.541 2.868,-6.919 h 18.964 c 10.406,0 18.842,-8.436 18.842,-18.842 0,-10.406 -8.436,-18.842 -18.843,-18.842 z m -74.237,39.568 c -11.428,0 -20.726,-9.298 -20.726,-20.726 0,-11.428 9.298,-20.726 20.726,-20.726 11.428,0 20.726,9.298 20.726,20.726 0,11.428 -9.298,20.726 -20.726,20.726 z"
         id="path96-9"
         style="fill:#00c0f5;fill-opacity:1" /><path
         d="m 2118.8733,2384.6235 c -31.399,0 -56.944,25.546 -56.944,56.945 0,31.399 25.545,56.944 56.944,56.944 31.399,0 56.945,-25.545 56.945,-56.944 0,-31.399 -25.545,-56.945 -56.945,-56.945 z m 0,76.205 c -10.621,0 -19.26,-8.64 -19.26,-19.26 0,-10.62 8.64,-19.261 19.26,-19.261 10.62,0 19.261,8.641 19.261,19.261 0,10.62 -8.64,19.26 -19.261,19.26 z"
         id="path97-4"
         style="fill:#14c9ff;fill-opacity:1" /><path
         d="m 2122.7992,2555.2785 c -1.4962,-10.6847 -11.3784,-18.1376 -22.0579,-16.6373 -10.6847,1.4962 -18.1335,11.3712 -16.6373,22.0579 l 2.0934,14.9493 h -20.9505 c -10.7895,0 -19.5363,8.7469 -19.5363,19.5363 0,10.7894 8.7468,19.5363 19.5363,19.5363 h 43.4149 c 11.8698,0 20.9909,-10.5095 19.3475,-22.2466 z"
         id="path99-2"
         style="fill:#33ddff;fill-opacity:1;stroke-width:1.03685" /></g><g
       id="text317"
       style="font-weight:800;font-size:39.5435px;font-family:'Geist Mono';-inkscape-font-specification:'Geist Mono Ultra-Bold';letter-spacing:0px;stroke-width:0.337019"
       aria-label="CAMBRIAN"><path
         style="font-weight:bold;font-family:'Space Mono';-inkscape-font-specification:'Space Mono Bold'"
         d="m 1372.7019,1169.7194 q 1.5026,0 2.4517,-0.435 0.9885,-0.4745 1.5026,-1.2258 0.5536,-0.7909 0.7513,-1.7795 0.1978,-1.0281 0.1978,-2.0958 v -0.7118 h 5.2197 v 0.7118 q 0,4.9429 -2.6099,7.6319 -2.5703,2.6494 -7.5132,2.6494 -4.7453,0 -7.5133,-2.8867 -2.7681,-2.8866 -2.7681,-8.4227 v -6.1688 q 0,-2.6494 0.7118,-4.7452 0.7118,-2.1354 2.0563,-3.5589 1.3445,-1.4632 3.2426,-2.2145 1.898,-0.7908 4.2707,-0.7908 2.4517,0 4.3497,0.7117 1.8981,0.7118 3.1635,2.0563 1.305,1.3445 1.9377,3.2426 0.6722,1.8981 0.6722,4.2707 v 0.7117 h -5.2197 v -0.7117 q 0,-0.9886 -0.2373,-1.9772 -0.2373,-0.9886 -0.7909,-1.7795 -0.5536,-0.7908 -1.5026,-1.2654 -0.9491,-0.514 -2.3726,-0.514 -1.305,0 -2.254,0.514 -0.9491,0.4746 -1.5818,1.3445 -0.6327,0.8304 -0.949,1.9772 -0.2768,1.1072 -0.2768,2.3331 v 6.9596 q 0,1.3445 0.2768,2.4913 0.2768,1.1072 0.87,1.9376 0.5931,0.8304 1.5421,1.3049 0.9886,0.435 2.3727,0.435 z"
         id="path372" /><path
         style="font-weight:bold;font-family:'Space Mono';-inkscape-font-specification:'Space Mono Bold';letter-spacing:1.77824px"
         d="m 1401.529,1167.9795 h -9.4113 l -1.3445,5.9315 h -5.457 l 6.6038,-27.6804 h 9.8068 l 6.6037,27.6804 h -5.457 z m -8.3041,-4.9825 h 7.1574 l -3.203,-14.1566 h -0.7118 z"
         id="path373" /><path
         style="font-weight:bold;font-family:'Space Mono';-inkscape-font-specification:'Space Mono Bold';letter-spacing:1.48187px"
         d="m 1411.5719,1146.2306 h 9.1741 l 1.5817,20.7998 v 4.0335 h 0.949 v -4.0335 l 1.5818,-20.7998 h 9.1741 v 27.6804 h -4.7453 v -18.5063 l 0.4746,-6.327 h -0.9491 l -2.0562,24.8333 h -7.8296 l -2.1354,-24.8333 h -0.949 l 0.4745,6.327 v 18.5063 h -4.7452 z"
         id="path374" /><path
         style="font-weight:bold;font-family:'Space Mono';-inkscape-font-specification:'Space Mono Bold';letter-spacing:-0.987908px"
         d="m 1438.2034,1168.9285 h 2.6098 v -17.7155 h -2.6098 v -4.9824 h 12.1398 q 1.9772,0 3.4799,0.5536 1.5422,0.5536 2.5703,1.5026 1.0677,0.9491 1.5817,2.2935 0.5536,1.305 0.5536,2.8472 v 0.4745 q 0,2.3726 -1.3444,3.7962 -1.305,1.4235 -3.3217,1.9772 v 0.7117 q 2.0167,0.5536 3.3217,2.0168 1.3444,1.4235 1.3444,3.7961 v 0.4746 q 0,1.5421 -0.5536,2.8866 -0.514,1.305 -1.5817,2.2935 -1.0281,0.9491 -2.5703,1.5027 -1.5027,0.5536 -3.4799,0.5536 h -12.1398 z m 7.8296,0 h 3.7962 q 1.6608,0 2.6889,-0.7118 1.0282,-0.7117 1.0282,-2.3726 v -0.2372 q 0,-1.6609 -1.0282,-2.3726 -1.0281,-0.7118 -2.6889,-0.7118 h -3.7962 z m 0,-11.3885 h 3.7962 q 1.6608,0 2.6889,-0.6722 1.0282,-0.7118 1.0282,-2.3726 v -0.2373 q 0,-1.6608 -1.0282,-2.3331 -1.0281,-0.7118 -2.6889,-0.7118 h -3.7962 z"
         id="path375" /><path
         style="font-weight:bold;font-family:'Space Mono';-inkscape-font-specification:'Space Mono Bold';letter-spacing:-1.48187px"
         d="m 1481.0692,1173.911 h -5.2198 v -8.3041 q 0,-0.9491 -0.514,-1.5422 -0.4745,-0.5932 -1.6213,-0.5932 h -6.0106 v 10.4395 h -5.2198 v -27.6804 h 10.5977 q 2.1354,0 3.7566,0.5931 1.6213,0.5932 2.689,1.6608 1.1072,1.0282 1.6608,2.4122 0.5932,1.384 0.5932,2.9658 v 0.949 q 0,1.7004 -0.9095,3.203 -0.9095,1.4631 -2.8076,2.254 v 0.7118 q 1.384,0.1582 2.1749,1.0677 0.8304,0.9095 0.8304,2.2935 z m -13.3657,-15.422 h 4.9825 q 1.8981,0 2.8866,-0.8699 0.9886,-0.9095 0.9886,-2.5308 v -0.4745 q 0,-1.384 -0.9886,-2.3726 -0.9885,-1.0282 -2.8866,-1.0282 h -4.9825 z"
         id="path376" /><path
         style="font-weight:bold;font-family:'Space Mono';-inkscape-font-specification:'Space Mono Bold'"
         d="m 1485.1629,1146.2306 h 18.5064 v 4.9824 h -6.6433 v 17.7155 h 6.6433 v 4.9825 h -18.5064 v -4.9825 h 6.6433 v -17.7155 h -6.6433 z"
         id="path377" /><path
         style="font-weight:bold;font-family:'Space Mono';-inkscape-font-specification:'Space Mono Bold';letter-spacing:0.493956px"
         d="m 1523.3224,1167.9795 h -9.4114 l -1.3444,5.9315 h -5.457 l 6.6037,-27.6804 h 9.8068 l 6.6038,27.6804 h -5.457 z m -8.3041,-4.9825 h 7.1573 l -3.203,-14.1566 h -0.7118 z"
         id="path378" /><path
         style="font-weight:bold;font-family:'Space Mono';-inkscape-font-specification:'Space Mono Bold'"
         d="m 1547.0679,1171.3011 h 0.7118 v -25.0705 h 5.2197 v 27.6804 h -10.2022 l -3.2426,-25.0706 h -0.7118 v 25.0706 h -5.2197 v -27.6804 h 10.2022 z"
         id="path379" /></g></g><style
     type="text/css"
     id="style1941">
	.st0{fill:none;stroke:#000000;stroke-width:2;stroke-linecap:round;stroke-linejoin:round;stroke-miterlimit:10;}
</style><style
     type="text/css"
     id="style1941-0">
	.st0{fill:none;stroke:#000000;stroke-width:2;stroke-linecap:round;stroke-linejoin:round;stroke-miterlimit:10;}
</style><style
     type="text/css"
     id="style1941-7">
	.st0{fill:none;stroke:#000000;stroke-width:2;stroke-linecap:round;stroke-linejoin:round;stroke-miterlimit:10;}
</style><style
     type="text/css"
     id="style22485">
	.st0{fill:none;stroke:#6C3DB7;stroke-width:4;stroke-linecap:round;stroke-linejoin:round;stroke-miterlimit:10;}
	.st1{fill:none;stroke:#1F992A;stroke-width:4;stroke-linecap:round;stroke-linejoin:round;stroke-miterlimit:10;}
	.st2{fill:none;stroke:#6A83BA;stroke-width:4;stroke-linecap:round;stroke-linejoin:round;stroke-miterlimit:10;}
	.st3{fill:#8A8AFF;stroke:#8A8AFF;stroke-width:2;stroke-linecap:round;stroke-linejoin:round;stroke-miterlimit:10;}
	.st4{fill:#6C3DB7;stroke:#6C3DB7;stroke-width:2;stroke-linecap:round;stroke-linejoin:round;stroke-miterlimit:10;}
	.st5{fill:#A576FF;stroke:#A576FF;stroke-width:2;stroke-linecap:round;stroke-linejoin:round;stroke-miterlimit:10;}
	.st6{fill:#F2BB41;stroke:#F2BB41;stroke-width:2;stroke-linecap:round;stroke-linejoin:round;stroke-miterlimit:10;}
	.st7{fill:#E08838;stroke:#E08838;stroke-width:2;stroke-linecap:round;stroke-linejoin:round;stroke-miterlimit:10;}
	.st8{fill:#1F992A;stroke:#1F992A;stroke-width:2;stroke-linecap:round;stroke-linejoin:round;stroke-miterlimit:10;}
	.st9{fill:#5EC11E;stroke:#5EC11E;stroke-width:2;stroke-linecap:round;stroke-linejoin:round;stroke-miterlimit:10;}
	.st10{fill:#E3FAFF;stroke:#E3FAFF;stroke-width:2;stroke-linecap:round;stroke-linejoin:round;stroke-miterlimit:10;}
	.st11{fill:#FF5093;stroke:#FF5093;stroke-width:2;stroke-linecap:round;stroke-linejoin:round;stroke-miterlimit:10;}
	.st12{fill:#B7257F;stroke:#B7257F;stroke-width:2;stroke-linecap:round;stroke-linejoin:round;stroke-miterlimit:10;}
	.st13{fill:#5189E5;stroke:#5189E5;stroke-width:2;stroke-linecap:round;stroke-linejoin:round;stroke-miterlimit:10;}
	.st14{fill:#6EBAFF;stroke:#6EBAFF;stroke-width:2;stroke-linecap:round;stroke-linejoin:round;stroke-miterlimit:10;}
	.st15{fill:#EDD977;stroke:#EDD977;stroke-width:2;stroke-linecap:round;stroke-linejoin:round;stroke-miterlimit:10;}
	.st16{fill:#8C43FF;stroke:#8C43FF;stroke-width:2;stroke-linecap:round;stroke-linejoin:round;stroke-miterlimit:10;}
	.st17{fill:#5252BA;stroke:#5252BA;stroke-width:2;stroke-linecap:round;stroke-linejoin:round;stroke-miterlimit:10;}
	.st18{fill:none;stroke:#E3FAFF;stroke-width:4;stroke-linecap:round;stroke-linejoin:round;stroke-miterlimit:10;}
	.st19{fill:#354C75;stroke:#354C75;stroke-width:2;stroke-linecap:round;stroke-linejoin:round;stroke-miterlimit:10;}
</style><style
     type="text/css"
     id="style23106">
	.st0{fill:none;stroke:#000000;stroke-width:2;stroke-linecap:round;stroke-linejoin:round;stroke-miterlimit:10;}
	.st1{fill:none;stroke:#000000;stroke-width:2;stroke-linejoin:round;stroke-miterlimit:10;}
</style><style
     type="text/css"
     id="style1941-1">
	.st0{fill:none;stroke:#000000;stroke-width:2;stroke-linecap:round;stroke-linejoin:round;stroke-miterlimit:10;}
</style><style
     type="text/css"
     id="style1941-0-8">
	.st0{fill:none;stroke:#000000;stroke-width:2;stroke-linecap:round;stroke-linejoin:round;stroke-miterlimit:10;}
</style><style
     type="text/css"
     id="style1941-7-7">
	.st0{fill:none;stroke:#000000;stroke-width:2;stroke-linecap:round;stroke-linejoin:round;stroke-miterlimit:10;}
</style><style
     type="text/css"
     id="style22485-9">
	.st0{fill:none;stroke:#6C3DB7;stroke-width:4;stroke-linecap:round;stroke-linejoin:round;stroke-miterlimit:10;}
	.st1{fill:none;stroke:#1F992A;stroke-width:4;stroke-linecap:round;stroke-linejoin:round;stroke-miterlimit:10;}
	.st2{fill:none;stroke:#6A83BA;stroke-width:4;stroke-linecap:round;stroke-linejoin:round;stroke-miterlimit:10;}
	.st3{fill:#8A8AFF;stroke:#8A8AFF;stroke-width:2;stroke-linecap:round;stroke-linejoin:round;stroke-miterlimit:10;}
	.st4{fill:#6C3DB7;stroke:#6C3DB7;stroke-width:2;stroke-linecap:round;stroke-linejoin:round;stroke-miterlimit:10;}
	.st5{fill:#A576FF;stroke:#A576FF;stroke-width:2;stroke-linecap:round;stroke-linejoin:round;stroke-miterlimit:10;}
	.st6{fill:#F2BB41;stroke:#F2BB41;stroke-width:2;stroke-linecap:round;stroke-linejoin:round;stroke-miterlimit:10;}
	.st7{fill:#E08838;stroke:#E08838;stroke-width:2;stroke-linecap:round;stroke-linejoin:round;stroke-miterlimit:10;}
	.st8{fill:#1F992A;stroke:#1F992A;stroke-width:2;stroke-linecap:round;stroke-linejoin:round;stroke-miterlimit:10;}
	.st9{fill:#5EC11E;stroke:#5EC11E;stroke-width:2;stroke-linecap:round;stroke-linejoin:round;stroke-miterlimit:10;}
	.st10{fill:#E3FAFF;stroke:#E3FAFF;stroke-width:2;stroke-linecap:round;stroke-linejoin:round;stroke-miterlimit:10;}
	.st11{fill:#FF5093;stroke:#FF5093;stroke-width:2;stroke-linecap:round;stroke-linejoin:round;stroke-miterlimit:10;}
	.st12{fill:#B7257F;stroke:#B7257F;stroke-width:2;stroke-linecap:round;stroke-linejoin:round;stroke-miterlimit:10;}
	.st13{fill:#5189E5;stroke:#5189E5;stroke-width:2;stroke-linecap:round;stroke-linejoin:round;stroke-miterlimit:10;}
	.st14{fill:#6EBAFF;stroke:#6EBAFF;stroke-width:2;stroke-linecap:round;stroke-linejoin:round;stroke-miterlimit:10;}
	.st15{fill:#EDD977;stroke:#EDD977;stroke-width:2;stroke-linecap:round;stroke-linejoin:round;stroke-miterlimit:10;}
	.st16{fill:#8C43FF;stroke:#8C43FF;stroke-width:2;stroke-linecap:round;stroke-linejoin:round;stroke-miterlimit:10;}
	.st17{fill:#5252BA;stroke:#5252BA;stroke-width:2;stroke-linecap:round;stroke-linejoin:round;stroke-miterlimit:10;}
	.st18{fill:none;stroke:#E3FAFF;stroke-width:4;stroke-linecap:round;stroke-linejoin:round;stroke-miterlimit:10;}
	.st19{fill:#354C75;stroke:#354C75;stroke-width:2;stroke-linecap:round;stroke-linejoin:round;stroke-miterlimit:10;}
</style><style
     type="text/css"
     id="style23106-2">
	.st0{fill:none;stroke:#000000;stroke-width:2;stroke-linecap:round;stroke-linejoin:round;stroke-miterlimit:10;}
	.st1{fill:none;stroke:#000000;stroke-width:2;stroke-linejoin:round;stroke-miterlimit:10;}
</style><style
     type="text/css"
     id="style4736">
<![CDATA[
	.st0{fill:#D1D1D1;}
	.st1{fill:#454545;}
]]>
</style><style
     type="text/css"
     id="style1">
	.st0{fill:none;stroke:#000000;stroke-width:2;stroke-linecap:round;stroke-linejoin:round;stroke-miterlimit:10;}
</style><style
     type="text/css"
     id="style1-4">
	.linesandangles_een{fill:#111918;}
</style><style
     type="text/css"
     id="style1-2">
	.st0{fill:#000000;}
</style><style
     type="text/css"
     id="style1-5">
	.st0{fill:#000000;}
</style><style
     type="text/css"
     id="style1-1">
	.st0{fill:#000000;}
</style><style
     type="text/css"
     id="style1-0">
	.st0{fill:#F26E91;}
	.st1{fill:#00A779;}
	.st2{fill:#C4FFC9;}
	.st3{fill:#AB630A;}
	.st4{fill:#C98C40;}
	.st5{fill:#15AA78;}
	.st6{fill:#FF9000;}
	.st7{fill:#FCEECF;}
	.st8{fill:#FFE940;}
	.st9{fill:#F0E3CE;}
	.st10{fill:#FFB5C5;}
	.st11{fill:#91EDFF;}
	.st12{fill:#7191F0;}
	.st13{fill:#363636;}
	.st14{fill:#565656;}
	.st15{fill:#F3DF4D;}
	.st16{fill:#CD4A77;}
	.st17{fill:#577AE6;}
	.st18{fill:#F4D100;}
</style><style
     type="text/css"
     id="style1-56">
	.st0{fill:#000000;}
</style></svg>
