<?xml version="1.0" encoding="UTF-8" standalone="no"?>
<!-- Created with Inkscape (http://www.inkscape.org/) -->

<svg
   width="230.00003"
   height="230"
   viewBox="0 0 60.854171 60.854166"
   version="1.1"
   id="svg5"
   xml:space="preserve"
   xmlns="http://www.w3.org/2000/svg"
   xmlns:svg="http://www.w3.org/2000/svg"><defs
     id="defs2"><style
       id="style6568">.cls-1{fill:none;}.cls-2{clip-path:url(#clip-path);}</style><style
       id="style6568-5">.cls-1{fill:none;}.cls-2{clip-path:url(#clip-path);}</style><style
       id="style6568-9">.cls-1{fill:none;}.cls-2{clip-path:url(#clip-path);}</style><style
       id="style22571">.cls-1{fill:#84d0f7;}.cls-2{fill:#aa392d;}.cls-3{fill:#7c211a;}.cls-4{fill:#e59973;}.cls-5{fill:#2d2d2d;}.cls-6{opacity:0.2;}.cls-7{opacity:0.3;}</style><style
       id="style23309">
      .cls-1 {
        fill: none;
      }
    </style><style
       id="style6568-7">.cls-1{fill:none;}.cls-2{clip-path:url(#clip-path);}</style><style
       id="style6568-5-5">.cls-1{fill:none;}.cls-2{clip-path:url(#clip-path);}</style><style
       id="style6568-9-3">.cls-1{fill:none;}.cls-2{clip-path:url(#clip-path);}</style><style
       id="style22571-5">.cls-1{fill:#84d0f7;}.cls-2{fill:#aa392d;}.cls-3{fill:#7c211a;}.cls-4{fill:#e59973;}.cls-5{fill:#2d2d2d;}.cls-6{opacity:0.2;}.cls-7{opacity:0.3;}</style><style
       id="style23309-6">
      .cls-1 {
        fill: none;
      }
    </style><style
       id="style1-9">
      .cls-1 {
        fill: none;
      }
    </style><style
       id="style1-8">.cls-1{fill:none;stroke:#020202;stroke-miterlimit:10;stroke-width:1.83px;}</style></defs><g
     id="layer1"
     transform="translate(-1289.9294,-1128.8716)"><g
       id="g240"
       transform="matrix(0.11591024,0,0,0.11591024,1088.3748,871.91979)"
       style="fill:#ffffff"><path
         style="fill:#b3f0ff;fill-opacity:1"
         d="m 2001.1386,2223.5985 c -141.159,0 -256,114.841 -256,256 0,141.159 114.841,256 256,256 141.159,0 256,-114.841 256,-256 0,-141.159 -114.841,-256 -256,-256 z"
         id="path82-7" /><path
         d="m 1958.4854,2323.6776 c 0,0 -32.1849,-4.4382 -54.9332,18.3101 -22.7489,22.7489 -18.3107,54.9315 -18.3107,54.9315"
         stroke="#1c274c"
         stroke-width="38.8423"
         stroke-linecap="round"
         id="path2-5-2-3-1"
         style="fill:none;stroke:#66e0ff;stroke-opacity:1" /><path
         d="m 2007.5309,2384.1607 25.911,-25.9109"
         stroke="#1c274c"
         stroke-width="38.8665"
         stroke-linecap="round"
         id="path7-4-5-4"
         style="fill:none;fill-opacity:1;stroke:#66deff;stroke-opacity:1" /><path
         d="m 2001.2123,2503.8795 h -18.964 c -0.813,-2.378 -1.767,-4.688 -2.868,-6.917 l 13.412,-13.412 c 7.358,-7.357 7.358,-19.288 0,-26.646 -7.357,-7.357 -19.288,-7.357 -26.646,0 l -13.41,13.41 c -2.23,-1.1 -4.541,-2.055 -6.919,-2.868 v -18.964 c 0,-10.406 -8.436,-18.842 -18.842,-18.842 -10.406,0 -18.842,8.436 -18.842,18.842 v 18.964 c -2.378,0.813 -4.689,1.767 -6.919,2.868 l -13.41,-13.41 c -7.357,-7.357 -19.288,-7.357 -26.646,0 -7.358,7.357 -7.358,19.288 0,26.646 l 13.412,13.412 c -1.1,2.23 -2.055,4.54 -2.868,6.917 h -18.965 c -10.406,0 -18.842,8.436 -18.842,18.842 0,10.406 8.436,18.842 18.842,18.842 h 18.964 c 0.813,2.378 1.767,4.689 2.868,6.919 l -13.41,13.412 c -7.358,7.357 -7.358,19.288 0,26.646 7.36,7.358 19.288,7.358 26.646,0 l 13.412,-13.412 c 2.23,1.1 4.54,2.055 6.917,2.868 v 18.964 c 0,10.406 8.436,18.842 18.842,18.842 10.406,0 18.842,-8.436 18.842,-18.842 v -18.964 c 2.378,-0.813 4.688,-1.767 6.917,-2.868 l 13.412,13.412 c 7.358,7.358 19.288,7.358 26.646,0 7.358,-7.357 7.358,-19.288 0,-26.646 l -13.412,-13.412 c 1.1,-2.23 2.055,-4.541 2.868,-6.919 h 18.964 c 10.406,0 18.842,-8.436 18.842,-18.842 0,-10.406 -8.436,-18.842 -18.843,-18.842 z m -74.237,39.568 c -11.428,0 -20.726,-9.298 -20.726,-20.726 0,-11.428 9.298,-20.726 20.726,-20.726 11.428,0 20.726,9.298 20.726,20.726 0,11.428 -9.298,20.726 -20.726,20.726 z"
         id="path96-9"
         style="fill:#00c0f5;fill-opacity:1" /><path
         d="m 2118.8733,2384.6235 c -31.399,0 -56.944,25.546 -56.944,56.945 0,31.399 25.545,56.944 56.944,56.944 31.399,0 56.945,-25.545 56.945,-56.944 0,-31.399 -25.545,-56.945 -56.945,-56.945 z m 0,76.205 c -10.621,0 -19.26,-8.64 -19.26,-19.26 0,-10.62 8.64,-19.261 19.26,-19.261 10.62,0 19.261,8.641 19.261,19.261 0,10.62 -8.64,19.26 -19.261,19.26 z"
         id="path97-4"
         style="fill:#14c9ff;fill-opacity:1" /><path
         d="m 2122.7992,2555.2785 c -1.4962,-10.6847 -11.3784,-18.1376 -22.0579,-16.6373 -10.6847,1.4962 -18.1335,11.3712 -16.6373,22.0579 l 2.0934,14.9493 h -20.9505 c -10.7895,0 -19.5363,8.7469 -19.5363,19.5363 0,10.7894 8.7468,19.5363 19.5363,19.5363 h 43.4149 c 11.8698,0 20.9909,-10.5095 19.3475,-22.2466 z"
         id="path99-2"
         style="fill:#33ddff;fill-opacity:1;stroke-width:1.03685" /></g></g><style
     type="text/css"
     id="style1941">
	.st0{fill:none;stroke:#000000;stroke-width:2;stroke-linecap:round;stroke-linejoin:round;stroke-miterlimit:10;}
</style><style
     type="text/css"
     id="style1941-0">
	.st0{fill:none;stroke:#000000;stroke-width:2;stroke-linecap:round;stroke-linejoin:round;stroke-miterlimit:10;}
</style><style
     type="text/css"
     id="style1941-7">
	.st0{fill:none;stroke:#000000;stroke-width:2;stroke-linecap:round;stroke-linejoin:round;stroke-miterlimit:10;}
</style><style
     type="text/css"
     id="style22485">
	.st0{fill:none;stroke:#6C3DB7;stroke-width:4;stroke-linecap:round;stroke-linejoin:round;stroke-miterlimit:10;}
	.st1{fill:none;stroke:#1F992A;stroke-width:4;stroke-linecap:round;stroke-linejoin:round;stroke-miterlimit:10;}
	.st2{fill:none;stroke:#6A83BA;stroke-width:4;stroke-linecap:round;stroke-linejoin:round;stroke-miterlimit:10;}
	.st3{fill:#8A8AFF;stroke:#8A8AFF;stroke-width:2;stroke-linecap:round;stroke-linejoin:round;stroke-miterlimit:10;}
	.st4{fill:#6C3DB7;stroke:#6C3DB7;stroke-width:2;stroke-linecap:round;stroke-linejoin:round;stroke-miterlimit:10;}
	.st5{fill:#A576FF;stroke:#A576FF;stroke-width:2;stroke-linecap:round;stroke-linejoin:round;stroke-miterlimit:10;}
	.st6{fill:#F2BB41;stroke:#F2BB41;stroke-width:2;stroke-linecap:round;stroke-linejoin:round;stroke-miterlimit:10;}
	.st7{fill:#E08838;stroke:#E08838;stroke-width:2;stroke-linecap:round;stroke-linejoin:round;stroke-miterlimit:10;}
	.st8{fill:#1F992A;stroke:#1F992A;stroke-width:2;stroke-linecap:round;stroke-linejoin:round;stroke-miterlimit:10;}
	.st9{fill:#5EC11E;stroke:#5EC11E;stroke-width:2;stroke-linecap:round;stroke-linejoin:round;stroke-miterlimit:10;}
	.st10{fill:#E3FAFF;stroke:#E3FAFF;stroke-width:2;stroke-linecap:round;stroke-linejoin:round;stroke-miterlimit:10;}
	.st11{fill:#FF5093;stroke:#FF5093;stroke-width:2;stroke-linecap:round;stroke-linejoin:round;stroke-miterlimit:10;}
	.st12{fill:#B7257F;stroke:#B7257F;stroke-width:2;stroke-linecap:round;stroke-linejoin:round;stroke-miterlimit:10;}
	.st13{fill:#5189E5;stroke:#5189E5;stroke-width:2;stroke-linecap:round;stroke-linejoin:round;stroke-miterlimit:10;}
	.st14{fill:#6EBAFF;stroke:#6EBAFF;stroke-width:2;stroke-linecap:round;stroke-linejoin:round;stroke-miterlimit:10;}
	.st15{fill:#EDD977;stroke:#EDD977;stroke-width:2;stroke-linecap:round;stroke-linejoin:round;stroke-miterlimit:10;}
	.st16{fill:#8C43FF;stroke:#8C43FF;stroke-width:2;stroke-linecap:round;stroke-linejoin:round;stroke-miterlimit:10;}
	.st17{fill:#5252BA;stroke:#5252BA;stroke-width:2;stroke-linecap:round;stroke-linejoin:round;stroke-miterlimit:10;}
	.st18{fill:none;stroke:#E3FAFF;stroke-width:4;stroke-linecap:round;stroke-linejoin:round;stroke-miterlimit:10;}
	.st19{fill:#354C75;stroke:#354C75;stroke-width:2;stroke-linecap:round;stroke-linejoin:round;stroke-miterlimit:10;}
</style><style
     type="text/css"
     id="style23106">
	.st0{fill:none;stroke:#000000;stroke-width:2;stroke-linecap:round;stroke-linejoin:round;stroke-miterlimit:10;}
	.st1{fill:none;stroke:#000000;stroke-width:2;stroke-linejoin:round;stroke-miterlimit:10;}
</style><style
     type="text/css"
     id="style1941-1">
	.st0{fill:none;stroke:#000000;stroke-width:2;stroke-linecap:round;stroke-linejoin:round;stroke-miterlimit:10;}
</style><style
     type="text/css"
     id="style1941-0-8">
	.st0{fill:none;stroke:#000000;stroke-width:2;stroke-linecap:round;stroke-linejoin:round;stroke-miterlimit:10;}
</style><style
     type="text/css"
     id="style1941-7-7">
	.st0{fill:none;stroke:#000000;stroke-width:2;stroke-linecap:round;stroke-linejoin:round;stroke-miterlimit:10;}
</style><style
     type="text/css"
     id="style22485-9">
	.st0{fill:none;stroke:#6C3DB7;stroke-width:4;stroke-linecap:round;stroke-linejoin:round;stroke-miterlimit:10;}
	.st1{fill:none;stroke:#1F992A;stroke-width:4;stroke-linecap:round;stroke-linejoin:round;stroke-miterlimit:10;}
	.st2{fill:none;stroke:#6A83BA;stroke-width:4;stroke-linecap:round;stroke-linejoin:round;stroke-miterlimit:10;}
	.st3{fill:#8A8AFF;stroke:#8A8AFF;stroke-width:2;stroke-linecap:round;stroke-linejoin:round;stroke-miterlimit:10;}
	.st4{fill:#6C3DB7;stroke:#6C3DB7;stroke-width:2;stroke-linecap:round;stroke-linejoin:round;stroke-miterlimit:10;}
	.st5{fill:#A576FF;stroke:#A576FF;stroke-width:2;stroke-linecap:round;stroke-linejoin:round;stroke-miterlimit:10;}
	.st6{fill:#F2BB41;stroke:#F2BB41;stroke-width:2;stroke-linecap:round;stroke-linejoin:round;stroke-miterlimit:10;}
	.st7{fill:#E08838;stroke:#E08838;stroke-width:2;stroke-linecap:round;stroke-linejoin:round;stroke-miterlimit:10;}
	.st8{fill:#1F992A;stroke:#1F992A;stroke-width:2;stroke-linecap:round;stroke-linejoin:round;stroke-miterlimit:10;}
	.st9{fill:#5EC11E;stroke:#5EC11E;stroke-width:2;stroke-linecap:round;stroke-linejoin:round;stroke-miterlimit:10;}
	.st10{fill:#E3FAFF;stroke:#E3FAFF;stroke-width:2;stroke-linecap:round;stroke-linejoin:round;stroke-miterlimit:10;}
	.st11{fill:#FF5093;stroke:#FF5093;stroke-width:2;stroke-linecap:round;stroke-linejoin:round;stroke-miterlimit:10;}
	.st12{fill:#B7257F;stroke:#B7257F;stroke-width:2;stroke-linecap:round;stroke-linejoin:round;stroke-miterlimit:10;}
	.st13{fill:#5189E5;stroke:#5189E5;stroke-width:2;stroke-linecap:round;stroke-linejoin:round;stroke-miterlimit:10;}
	.st14{fill:#6EBAFF;stroke:#6EBAFF;stroke-width:2;stroke-linecap:round;stroke-linejoin:round;stroke-miterlimit:10;}
	.st15{fill:#EDD977;stroke:#EDD977;stroke-width:2;stroke-linecap:round;stroke-linejoin:round;stroke-miterlimit:10;}
	.st16{fill:#8C43FF;stroke:#8C43FF;stroke-width:2;stroke-linecap:round;stroke-linejoin:round;stroke-miterlimit:10;}
	.st17{fill:#5252BA;stroke:#5252BA;stroke-width:2;stroke-linecap:round;stroke-linejoin:round;stroke-miterlimit:10;}
	.st18{fill:none;stroke:#E3FAFF;stroke-width:4;stroke-linecap:round;stroke-linejoin:round;stroke-miterlimit:10;}
	.st19{fill:#354C75;stroke:#354C75;stroke-width:2;stroke-linecap:round;stroke-linejoin:round;stroke-miterlimit:10;}
</style><style
     type="text/css"
     id="style23106-2">
	.st0{fill:none;stroke:#000000;stroke-width:2;stroke-linecap:round;stroke-linejoin:round;stroke-miterlimit:10;}
	.st1{fill:none;stroke:#000000;stroke-width:2;stroke-linejoin:round;stroke-miterlimit:10;}
</style><style
     type="text/css"
     id="style4736">
<![CDATA[
	.st0{fill:#D1D1D1;}
	.st1{fill:#454545;}
]]>
</style><style
     type="text/css"
     id="style1">
	.st0{fill:none;stroke:#000000;stroke-width:2;stroke-linecap:round;stroke-linejoin:round;stroke-miterlimit:10;}
</style><style
     type="text/css"
     id="style1-4">
	.linesandangles_een{fill:#111918;}
</style><style
     type="text/css"
     id="style1-2">
	.st0{fill:#000000;}
</style><style
     type="text/css"
     id="style1-5">
	.st0{fill:#000000;}
</style><style
     type="text/css"
     id="style1-1">
	.st0{fill:#000000;}
</style><style
     type="text/css"
     id="style1-0">
	.st0{fill:#F26E91;}
	.st1{fill:#00A779;}
	.st2{fill:#C4FFC9;}
	.st3{fill:#AB630A;}
	.st4{fill:#C98C40;}
	.st5{fill:#15AA78;}
	.st6{fill:#FF9000;}
	.st7{fill:#FCEECF;}
	.st8{fill:#FFE940;}
	.st9{fill:#F0E3CE;}
	.st10{fill:#FFB5C5;}
	.st11{fill:#91EDFF;}
	.st12{fill:#7191F0;}
	.st13{fill:#363636;}
	.st14{fill:#565656;}
	.st15{fill:#F3DF4D;}
	.st16{fill:#CD4A77;}
	.st17{fill:#577AE6;}
	.st18{fill:#F4D100;}
</style><style
     type="text/css"
     id="style1-56">
	.st0{fill:#000000;}
</style></svg>
