<?xml version="1.0" encoding="UTF-8" standalone="no"?>
<!-- Created with Inkscape (http://www.inkscape.org/) -->

<svg
   width="230.00003"
   height="230"
   viewBox="0 0 60.854171 60.854166"
   version="1.1"
   id="svg5"
   xml:space="preserve"
   xmlns:xlink="http://www.w3.org/1999/xlink"
   xmlns="http://www.w3.org/2000/svg"
   xmlns:svg="http://www.w3.org/2000/svg"><defs
     id="defs2"><radialGradient
       id="radialGradient269"
       cx="77.121002"
       cy="66.694"
       r="76.183998"
       gradientTransform="rotate(-3.714,-608.323,2.714)"
       gradientUnits="userSpaceOnUse"><stop
         offset="0.18901604"
         stop-color="#ce93d8"
         id="stop267"
         style="stop-color:#00e539;stop-opacity:1;" /><stop
         offset="0.66910917"
         stop-color="#ce93d8"
         id="stop268"
         style="stop-color:#0099e5;stop-opacity:1;" /><stop
         offset="1"
         stop-color="#ab47bc"
         id="stop269"
         style="stop-color:#5900b2;stop-opacity:1;" /></radialGradient><style
       id="style6568">.cls-1{fill:none;}.cls-2{clip-path:url(#clip-path);}</style><style
       id="style6568-5">.cls-1{fill:none;}.cls-2{clip-path:url(#clip-path);}</style><style
       id="style6568-9">.cls-1{fill:none;}.cls-2{clip-path:url(#clip-path);}</style><style
       id="style22571">.cls-1{fill:#84d0f7;}.cls-2{fill:#aa392d;}.cls-3{fill:#7c211a;}.cls-4{fill:#e59973;}.cls-5{fill:#2d2d2d;}.cls-6{opacity:0.2;}.cls-7{opacity:0.3;}</style><style
       id="style23309">
      .cls-1 {
        fill: none;
      }
    </style><style
       id="style6568-7">.cls-1{fill:none;}.cls-2{clip-path:url(#clip-path);}</style><style
       id="style6568-5-5">.cls-1{fill:none;}.cls-2{clip-path:url(#clip-path);}</style><style
       id="style6568-9-3">.cls-1{fill:none;}.cls-2{clip-path:url(#clip-path);}</style><style
       id="style22571-5">.cls-1{fill:#84d0f7;}.cls-2{fill:#aa392d;}.cls-3{fill:#7c211a;}.cls-4{fill:#e59973;}.cls-5{fill:#2d2d2d;}.cls-6{opacity:0.2;}.cls-7{opacity:0.3;}</style><style
       id="style23309-6">
      .cls-1 {
        fill: none;
      }
    </style><style
       id="style1-9">
      .cls-1 {
        fill: none;
      }
    </style><style
       id="style1-8">.cls-1{fill:none;stroke:#020202;stroke-miterlimit:10;stroke-width:1.83px;}</style><radialGradient
       xlink:href="#radialGradient269"
       id="radialGradient70"
       cx="-900.03699"
       cy="11331.435"
       fx="-900.03699"
       fy="11331.435"
       r="192.01688"
       gradientTransform="matrix(1.4420559,-0.26513402,0.26364644,1.4339648,-2579.5113,-5165.8779)"
       gradientUnits="userSpaceOnUse" /><radialGradient
       xlink:href="#radialGradient269"
       id="radialGradient229"
       gradientUnits="userSpaceOnUse"
       gradientTransform="matrix(1.4420559,-0.26513402,0.26364644,1.4339648,-494.24296,-5185.9421)"
       cx="-900.03699"
       cy="11331.435"
       fx="-900.03699"
       fy="11331.435"
       r="192.01688" /></defs><g
     id="layer1"
     transform="translate(-1289.8558,-1057.2277)"><g
       id="g241"
       transform="matrix(0.37338259,0,0,0.37338259,169.40648,-936.3362)"><g
         id="g32-3"
         transform="matrix(0.41387415,0,0,0.41387415,3487.7647,700.9366)"><path
           style="fill:url(#radialGradient70);fill-opacity:1;stroke-width:0.750067"
           d="m -979.29015,11213.64 c -105.87845,0 -192.01685,86.139 -192.01685,192.017 0,105.879 86.1384,192.017 192.01685,192.017 105.87866,0 192.0169,-86.138 192.0169,-192.017 0,-105.878 -86.13824,-192.017 -192.0169,-192.017 z"
           id="path163-7-2-1" /><path
           style="baseline-shift:baseline;display:inline;overflow:visible;opacity:1;vector-effect:none;fill:#ffffff;fill-opacity:0.65;stroke-linecap:round;enable-background:accumulate;stop-color:#000000;stop-opacity:1"
           d="m -1014.4746,11273.891 c -9.7506,-0.271 -31.3697,1.305 -48.3125,18.248 -22.5905,22.59 -17.8633,53.494 -17.8633,53.494 a 14.56715,14.56715 0 0 0 16.4199,12.439 14.56715,14.56715 0 0 0 12.4414,-16.42 c 0,0 -1.9324,-17.376 9.6036,-28.912 11.535,-11.535 28.9121,-9.603 28.9121,-9.603 a 14.56715,14.56715 0 0 0 16.42184,-12.442 14.56715,14.56715 0 0 0 -12.44144,-16.42 c 0,0 -1.9314,-0.294 -5.1816,-0.384 z"
           id="path165-6-2-9" /><path
           style="baseline-shift:baseline;display:inline;overflow:visible;opacity:1;vector-effect:none;fill:#ffffff;fill-opacity:0.48;stroke-linecap:round;enable-background:accumulate;stop-color:#000000;stop-opacity:1"
           d="m -958.83398,11300.559 a 14.57625,14.57625 0 0 0 -6.53321,3.773 l -19.43554,19.434 a 14.57625,14.57625 0 0 0 0,20.615 14.57625,14.57625 0 0 0 20.61523,0 l 19.43359,-19.436 a 14.57625,14.57625 0 0 0 0,-20.615 14.57625,14.57625 0 0 0 -14.08007,-3.771 z"
           id="path166-0-8-4" /><path
           d="m -979.23475,11423.87 h -14.22437 c -0.60962,-1.784 -1.32519,-3.517 -2.15108,-5.189 l 10.05988,-10.06 c 5.51895,-5.518 5.51895,-14.467 0,-19.986 -5.51824,-5.518 -14.46728,-5.518 -19.98618,0 l -10.0584,10.059 c -1.6726,-0.825 -3.4062,-1.542 -5.1898,-2.151 v -14.225 c 0,-7.805 -6.3276,-14.132 -14.1326,-14.132 -7.8053,0 -14.133,6.327 -14.133,14.132 v 14.225 c -1.7836,0.609 -3.5169,1.325 -5.1897,2.151 l -10.0582,-10.059 c -5.5182,-5.518 -14.4675,-5.518 -19.9864,0 -5.519,5.519 -5.519,14.468 0,19.986 l 10.0598,10.06 c -0.8249,1.673 -1.5412,3.406 -2.151,5.189 h -14.2251 c -7.805,0 -14.1327,6.327 -14.1327,14.132 0,7.806 6.3277,14.133 14.1327,14.133 h 14.2244 c 0.6098,1.784 1.3254,3.517 2.151,5.19 l -10.0584,10.06 c -5.519,5.518 -5.519,14.467 0,19.986 5.5207,5.519 14.4675,5.519 19.9865,0 l 10.0598,-10.06 c 1.6726,0.825 3.4052,1.542 5.188,2.151 v 14.225 c 0,7.805 6.3277,14.132 14.133,14.132 7.805,0 14.1327,-6.327 14.1327,-14.132 v -14.225 c 1.7836,-0.609 3.5164,-1.325 5.1882,-2.151 l 10.0599,10.06 c 5.519,5.519 14.46724,5.519 19.9862,0 5.51896,-5.518 5.51896,-14.467 0,-19.986 l -10.05987,-10.06 c 0.82516,-1.673 1.54146,-3.406 2.15107,-5.19 h 14.22437 c 7.80526,0 14.13269,-6.327 14.13269,-14.133 0,-7.805 -6.32743,-14.132 -14.13341,-14.132 z m -55.68255,29.678 c -8.5719,0 -15.546,-6.974 -15.546,-15.546 0,-8.571 6.9741,-15.545 15.546,-15.545 8.5716,0 15.5456,6.974 15.5456,15.545 0,8.572 -6.974,15.546 -15.5456,15.546 z"
           id="path167-9-9-7"
           style="fill:#ffffff;fill-opacity:1;stroke-width:0.750067" /><path
           d="m -890.98125,11334.42 c -23.55125,0 -42.71181,19.161 -42.71181,42.712 0,23.552 19.16056,42.712 42.71181,42.712 23.55126,0 42.71255,-19.16 42.71255,-42.712 0,-23.551 -19.16057,-42.712 -42.71255,-42.712 z m 0,57.159 c -7.96637,0 -14.4462,-6.481 -14.4462,-14.447 0,-7.965 6.48056,-14.447 14.4462,-14.447 7.96565,0 14.44693,6.482 14.44693,14.447 0,7.966 -6.48055,14.447 -14.44693,14.447 z"
           id="path168-7-7-8"
           style="fill:#ffffff;fill-opacity:0.848044;stroke-width:0.750067" /><path
           d="m -886.75651,11462.422 c -1.12223,-8.014 -8.53438,-13.604 -16.54478,-12.479 -8.01427,1.123 -13.60145,8.529 -12.47923,16.545 l 1.57025,11.213 h -15.7143 c -8.09265,0 -14.65352,6.561 -14.65352,14.654 0,8.092 6.56087,14.653 14.65352,14.653 h 32.56413 c 8.90305,0 15.74454,-7.883 14.512,-16.686 z"
           id="path169-5-36-4"
           style="fill:#ffffff;fill-opacity:0.65;stroke-width:0.777705" /><path
           style="baseline-shift:baseline;display:inline;overflow:visible;opacity:1;vector-effect:none;fill:#ffffff;fill-opacity:0.65;stroke-linecap:round;enable-background:accumulate;stop-color:#000000;stop-opacity:1"
           d="m 1066.6873,11242.457 c -9.7506,-0.271 -31.3697,1.305 -48.3125,18.248 -22.59046,22.59 -17.8633,53.494 -17.8633,53.494 a 14.56715,14.56715 0 0 0 16.4199,12.439 14.56715,14.56715 0 0 0 12.4414,-16.42 c 0,0 -1.9324,-17.376 9.6036,-28.912 11.535,-11.535 28.9121,-9.603 28.9121,-9.603 a 14.56715,14.56715 0 0 0 16.4219,-12.442 14.56715,14.56715 0 0 0 -12.4415,-16.42 c 0,0 -1.9314,-0.294 -5.1816,-0.384 z"
           id="path77" /><path
           style="baseline-shift:baseline;display:inline;overflow:visible;opacity:1;vector-effect:none;fill:#ffffff;fill-opacity:0.48;stroke-linecap:round;enable-background:accumulate;stop-color:#000000;stop-opacity:1"
           d="m 1122.328,11269.125 a 14.57625,14.57625 0 0 0 -6.5333,3.773 l -19.4355,19.434 a 14.57625,14.57625 0 0 0 0,20.615 14.57625,14.57625 0 0 0 20.6152,0 l 19.4336,-19.436 a 14.57625,14.57625 0 0 0 0,-20.615 14.57625,14.57625 0 0 0 -14.08,-3.771 z"
           id="path78" /><path
           d="m 1101.9272,11392.436 h -14.2244 c -0.6096,-1.784 -1.3252,-3.517 -2.1511,-5.189 l 10.0599,-10.06 c 5.519,-5.518 5.519,-14.467 0,-19.986 -5.5182,-5.518 -14.4673,-5.518 -19.9862,0 l -10.0584,10.059 c -1.6726,-0.825 -3.4062,-1.542 -5.1898,-2.151 v -14.225 c 0,-7.805 -6.3276,-14.132 -14.1326,-14.132 -7.8053,0 -14.133,6.327 -14.133,14.132 v 14.225 c -1.7836,0.609 -3.5169,1.325 -5.1897,2.151 l -10.0582,-10.059 c -5.5182,-5.518 -14.4675,-5.518 -19.98636,0 -5.519,5.519 -5.519,14.468 0,19.986 l 10.05976,10.06 c -0.8249,1.673 -1.5412,3.406 -2.151,5.189 h -14.22506 c -7.80505,0 -14.13275,6.327 -14.13275,14.132 0,7.806 6.3277,14.133 14.13275,14.133 h 14.22436 c 0.6098,1.784 1.3254,3.517 2.151,5.19 l -10.05836,10.06 c -5.519,5.518 -5.519,14.467 0,19.986 5.52066,5.519 14.46746,5.519 19.98646,0 l 10.0598,-10.06 c 1.6726,0.825 3.4052,1.542 5.188,2.151 v 14.225 c 0,7.805 6.3277,14.132 14.133,14.132 7.805,0 14.1327,-6.327 14.1327,-14.132 v -14.225 c 1.7836,-0.609 3.5164,-1.325 5.1882,-2.151 l 10.0599,10.06 c 5.519,5.519 14.4673,5.519 19.9862,0 5.519,-5.518 5.519,-14.467 0,-19.986 l -10.0598,-10.06 c 0.8251,-1.673 1.5414,-3.406 2.151,-5.19 h 14.2244 c 7.8053,0 14.1327,-6.327 14.1327,-14.133 0,-7.805 -6.3274,-14.132 -14.1334,-14.132 z m -55.6826,29.678 c -8.5719,0 -15.546,-6.974 -15.546,-15.546 0,-8.571 6.9741,-15.545 15.546,-15.545 8.5716,0 15.5456,6.974 15.5456,15.545 0,8.572 -6.974,15.546 -15.5456,15.546 z"
           id="path79"
           style="fill:#ffffff;fill-opacity:1;stroke-width:0.750067" /><path
           d="m 1190.1807,11302.986 c -23.5513,0 -42.7118,19.161 -42.7118,42.712 0,23.552 19.1605,42.712 42.7118,42.712 23.5512,0 42.7125,-19.16 42.7125,-42.712 0,-23.551 -19.1605,-42.712 -42.7125,-42.712 z m 0,57.159 c -7.9664,0 -14.4462,-6.481 -14.4462,-14.447 0,-7.965 6.4805,-14.447 14.4462,-14.447 7.9656,0 14.4469,6.482 14.4469,14.447 0,7.966 -6.4805,14.447 -14.4469,14.447 z"
           id="path80"
           style="fill:#ffffff;fill-opacity:0.848044;stroke-width:0.750067" /><path
           d="m 1194.4054,11430.988 c -1.1222,-8.014 -8.5344,-13.604 -16.5448,-12.479 -8.0142,1.123 -13.6014,8.529 -12.4792,16.545 l 1.5703,11.213 h -15.7143 c -8.0927,0 -14.6536,6.561 -14.6536,14.654 0,8.092 6.5609,14.653 14.6536,14.653 h 32.5641 c 8.903,0 15.7445,-7.883 14.512,-16.686 z"
           id="path81"
           style="fill:#ffffff;fill-opacity:0.65;stroke-width:0.777705" /><path
           style="fill:url(#radialGradient229);fill-opacity:1;stroke-width:0.750067"
           d="m 1105.9782,11193.576 c -105.8785,0 -192.01686,86.139 -192.01686,192.017 0,105.879 86.13836,192.017 192.01686,192.017 105.8786,0 192.0169,-86.138 192.0169,-192.017 0,-105.878 -86.1383,-192.017 -192.0169,-192.017 z"
           id="path216" /><path
           style="baseline-shift:baseline;display:inline;overflow:visible;opacity:1;vector-effect:none;fill:#ffffff;fill-opacity:0.65;stroke-linecap:round;enable-background:accumulate;stop-color:#000000;stop-opacity:1"
           d="m 1070.7937,11253.827 c -9.7506,-0.271 -31.3697,1.305 -48.3125,18.248 -22.5905,22.59 -17.8633,53.494 -17.8633,53.494 a 14.56715,14.56715 0 0 0 16.4199,12.439 14.56715,14.56715 0 0 0 12.4414,-16.42 c 0,0 -1.9324,-17.376 9.6036,-28.912 11.535,-11.535 28.9121,-9.603 28.9121,-9.603 a 14.56715,14.56715 0 0 0 16.4219,-12.442 14.56715,14.56715 0 0 0 -12.4415,-16.42 c 0,0 -1.9314,-0.294 -5.1816,-0.384 z"
           id="path217" /><path
           style="baseline-shift:baseline;display:inline;overflow:visible;opacity:1;vector-effect:none;fill:#ffffff;fill-opacity:0.48;stroke-linecap:round;enable-background:accumulate;stop-color:#000000;stop-opacity:1"
           d="m 1126.4344,11280.495 a 14.57625,14.57625 0 0 0 -6.5333,3.773 l -19.4355,19.434 a 14.57625,14.57625 0 0 0 0,20.615 14.57625,14.57625 0 0 0 20.6152,0 l 19.4336,-19.436 a 14.57625,14.57625 0 0 0 0,-20.615 14.57625,14.57625 0 0 0 -14.08,-3.771 z"
           id="path218" /><path
           d="m 1106.0336,11403.806 h -14.2244 c -0.6096,-1.784 -1.3252,-3.517 -2.1511,-5.189 l 10.0599,-10.06 c 5.519,-5.518 5.519,-14.467 0,-19.986 -5.5182,-5.518 -14.4673,-5.518 -19.9862,0 l -10.0584,10.059 c -1.6726,-0.825 -3.4062,-1.542 -5.1898,-2.151 v -14.225 c 0,-7.805 -6.3276,-14.132 -14.1326,-14.132 -7.8053,0 -14.133,6.327 -14.133,14.132 v 14.225 c -1.7836,0.609 -3.5169,1.325 -5.1897,2.151 l -10.0582,-10.059 c -5.5182,-5.518 -14.4675,-5.518 -19.9864,0 -5.519,5.519 -5.519,14.468 0,19.986 l 10.0598,10.06 c -0.8249,1.673 -1.5412,3.406 -2.151,5.189 h -14.2251 c -7.80496,0 -14.13266,6.327 -14.13266,14.132 0,7.806 6.3277,14.133 14.13266,14.133 h 14.2244 c 0.6098,1.784 1.3254,3.517 2.151,5.19 l -10.0584,10.06 c -5.519,5.518 -5.519,14.467 0,19.986 5.5207,5.519 14.4675,5.519 19.9865,0 l 10.0598,-10.06 c 1.6726,0.825 3.4052,1.542 5.188,2.151 v 14.225 c 0,7.805 6.3277,14.132 14.133,14.132 7.805,0 14.1327,-6.327 14.1327,-14.132 v -14.225 c 1.7836,-0.609 3.5164,-1.325 5.1882,-2.151 l 10.0599,10.06 c 5.519,5.519 14.4673,5.519 19.9862,0 5.519,-5.518 5.519,-14.467 0,-19.986 l -10.0598,-10.06 c 0.8251,-1.673 1.5414,-3.406 2.151,-5.19 h 14.2244 c 7.8053,0 14.1327,-6.327 14.1327,-14.133 0,-7.805 -6.3274,-14.132 -14.1334,-14.132 z m -55.6826,29.678 c -8.5719,0 -15.546,-6.974 -15.546,-15.546 0,-8.571 6.9741,-15.545 15.546,-15.545 8.5716,0 15.5456,6.974 15.5456,15.545 0,8.572 -6.974,15.546 -15.5456,15.546 z"
           id="path219"
           style="fill:#ffffff;fill-opacity:1;stroke-width:0.750067" /><path
           d="m 1194.2871,11314.356 c -23.5513,0 -42.7118,19.161 -42.7118,42.712 0,23.552 19.1605,42.712 42.7118,42.712 23.5512,0 42.7125,-19.16 42.7125,-42.712 0,-23.551 -19.1605,-42.712 -42.7125,-42.712 z m 0,57.159 c -7.9664,0 -14.4462,-6.481 -14.4462,-14.447 0,-7.965 6.4805,-14.447 14.4462,-14.447 7.9656,0 14.4469,6.482 14.4469,14.447 0,7.966 -6.4805,14.447 -14.4469,14.447 z"
           id="path220"
           style="fill:#ffffff;fill-opacity:0.848044;stroke-width:0.750067" /><path
           d="m 1198.5118,11442.358 c -1.1222,-8.014 -8.5344,-13.604 -16.5448,-12.479 -8.0142,1.123 -13.6014,8.529 -12.4792,16.545 l 1.5703,11.213 h -15.7143 c -8.0927,0 -14.6536,6.561 -14.6536,14.654 0,8.092 6.5609,14.653 14.6536,14.653 h 32.5641 c 8.903,0 15.7445,-7.883 14.512,-16.686 z"
           id="path221"
           style="fill:#ffffff;fill-opacity:0.65;stroke-width:0.777705" /></g><g
         id="g242-7-5"
         transform="matrix(1.0012072,0,0,1.0012072,882.43897,158.11833)"><g
           style="fill:#00ccff;fill-opacity:1"
           id="g63-6-9-6"
           transform="matrix(0.3100586,0,0,0.3100586,2820.534,5574.6622)"><g
             id="g62-4-3-9"
             style="fill:#00ccff;fill-opacity:1">
	<g
   id="g61-1-5-3"
   style="fill:#00ccff;fill-opacity:1">
		<g
   id="g60-2-7-7"
   style="fill:#00ccff;fill-opacity:1"
   transform="translate(-157.33334,208)">
			
			
			
			
			
		</g>
	</g>
</g></g></g></g></g><style
     type="text/css"
     id="style1941">
	.st0{fill:none;stroke:#000000;stroke-width:2;stroke-linecap:round;stroke-linejoin:round;stroke-miterlimit:10;}
</style><style
     type="text/css"
     id="style1941-0">
	.st0{fill:none;stroke:#000000;stroke-width:2;stroke-linecap:round;stroke-linejoin:round;stroke-miterlimit:10;}
</style><style
     type="text/css"
     id="style1941-7">
	.st0{fill:none;stroke:#000000;stroke-width:2;stroke-linecap:round;stroke-linejoin:round;stroke-miterlimit:10;}
</style><style
     type="text/css"
     id="style22485">
	.st0{fill:none;stroke:#6C3DB7;stroke-width:4;stroke-linecap:round;stroke-linejoin:round;stroke-miterlimit:10;}
	.st1{fill:none;stroke:#1F992A;stroke-width:4;stroke-linecap:round;stroke-linejoin:round;stroke-miterlimit:10;}
	.st2{fill:none;stroke:#6A83BA;stroke-width:4;stroke-linecap:round;stroke-linejoin:round;stroke-miterlimit:10;}
	.st3{fill:#8A8AFF;stroke:#8A8AFF;stroke-width:2;stroke-linecap:round;stroke-linejoin:round;stroke-miterlimit:10;}
	.st4{fill:#6C3DB7;stroke:#6C3DB7;stroke-width:2;stroke-linecap:round;stroke-linejoin:round;stroke-miterlimit:10;}
	.st5{fill:#A576FF;stroke:#A576FF;stroke-width:2;stroke-linecap:round;stroke-linejoin:round;stroke-miterlimit:10;}
	.st6{fill:#F2BB41;stroke:#F2BB41;stroke-width:2;stroke-linecap:round;stroke-linejoin:round;stroke-miterlimit:10;}
	.st7{fill:#E08838;stroke:#E08838;stroke-width:2;stroke-linecap:round;stroke-linejoin:round;stroke-miterlimit:10;}
	.st8{fill:#1F992A;stroke:#1F992A;stroke-width:2;stroke-linecap:round;stroke-linejoin:round;stroke-miterlimit:10;}
	.st9{fill:#5EC11E;stroke:#5EC11E;stroke-width:2;stroke-linecap:round;stroke-linejoin:round;stroke-miterlimit:10;}
	.st10{fill:#E3FAFF;stroke:#E3FAFF;stroke-width:2;stroke-linecap:round;stroke-linejoin:round;stroke-miterlimit:10;}
	.st11{fill:#FF5093;stroke:#FF5093;stroke-width:2;stroke-linecap:round;stroke-linejoin:round;stroke-miterlimit:10;}
	.st12{fill:#B7257F;stroke:#B7257F;stroke-width:2;stroke-linecap:round;stroke-linejoin:round;stroke-miterlimit:10;}
	.st13{fill:#5189E5;stroke:#5189E5;stroke-width:2;stroke-linecap:round;stroke-linejoin:round;stroke-miterlimit:10;}
	.st14{fill:#6EBAFF;stroke:#6EBAFF;stroke-width:2;stroke-linecap:round;stroke-linejoin:round;stroke-miterlimit:10;}
	.st15{fill:#EDD977;stroke:#EDD977;stroke-width:2;stroke-linecap:round;stroke-linejoin:round;stroke-miterlimit:10;}
	.st16{fill:#8C43FF;stroke:#8C43FF;stroke-width:2;stroke-linecap:round;stroke-linejoin:round;stroke-miterlimit:10;}
	.st17{fill:#5252BA;stroke:#5252BA;stroke-width:2;stroke-linecap:round;stroke-linejoin:round;stroke-miterlimit:10;}
	.st18{fill:none;stroke:#E3FAFF;stroke-width:4;stroke-linecap:round;stroke-linejoin:round;stroke-miterlimit:10;}
	.st19{fill:#354C75;stroke:#354C75;stroke-width:2;stroke-linecap:round;stroke-linejoin:round;stroke-miterlimit:10;}
</style><style
     type="text/css"
     id="style23106">
	.st0{fill:none;stroke:#000000;stroke-width:2;stroke-linecap:round;stroke-linejoin:round;stroke-miterlimit:10;}
	.st1{fill:none;stroke:#000000;stroke-width:2;stroke-linejoin:round;stroke-miterlimit:10;}
</style><style
     type="text/css"
     id="style1941-1">
	.st0{fill:none;stroke:#000000;stroke-width:2;stroke-linecap:round;stroke-linejoin:round;stroke-miterlimit:10;}
</style><style
     type="text/css"
     id="style1941-0-8">
	.st0{fill:none;stroke:#000000;stroke-width:2;stroke-linecap:round;stroke-linejoin:round;stroke-miterlimit:10;}
</style><style
     type="text/css"
     id="style1941-7-7">
	.st0{fill:none;stroke:#000000;stroke-width:2;stroke-linecap:round;stroke-linejoin:round;stroke-miterlimit:10;}
</style><style
     type="text/css"
     id="style22485-9">
	.st0{fill:none;stroke:#6C3DB7;stroke-width:4;stroke-linecap:round;stroke-linejoin:round;stroke-miterlimit:10;}
	.st1{fill:none;stroke:#1F992A;stroke-width:4;stroke-linecap:round;stroke-linejoin:round;stroke-miterlimit:10;}
	.st2{fill:none;stroke:#6A83BA;stroke-width:4;stroke-linecap:round;stroke-linejoin:round;stroke-miterlimit:10;}
	.st3{fill:#8A8AFF;stroke:#8A8AFF;stroke-width:2;stroke-linecap:round;stroke-linejoin:round;stroke-miterlimit:10;}
	.st4{fill:#6C3DB7;stroke:#6C3DB7;stroke-width:2;stroke-linecap:round;stroke-linejoin:round;stroke-miterlimit:10;}
	.st5{fill:#A576FF;stroke:#A576FF;stroke-width:2;stroke-linecap:round;stroke-linejoin:round;stroke-miterlimit:10;}
	.st6{fill:#F2BB41;stroke:#F2BB41;stroke-width:2;stroke-linecap:round;stroke-linejoin:round;stroke-miterlimit:10;}
	.st7{fill:#E08838;stroke:#E08838;stroke-width:2;stroke-linecap:round;stroke-linejoin:round;stroke-miterlimit:10;}
	.st8{fill:#1F992A;stroke:#1F992A;stroke-width:2;stroke-linecap:round;stroke-linejoin:round;stroke-miterlimit:10;}
	.st9{fill:#5EC11E;stroke:#5EC11E;stroke-width:2;stroke-linecap:round;stroke-linejoin:round;stroke-miterlimit:10;}
	.st10{fill:#E3FAFF;stroke:#E3FAFF;stroke-width:2;stroke-linecap:round;stroke-linejoin:round;stroke-miterlimit:10;}
	.st11{fill:#FF5093;stroke:#FF5093;stroke-width:2;stroke-linecap:round;stroke-linejoin:round;stroke-miterlimit:10;}
	.st12{fill:#B7257F;stroke:#B7257F;stroke-width:2;stroke-linecap:round;stroke-linejoin:round;stroke-miterlimit:10;}
	.st13{fill:#5189E5;stroke:#5189E5;stroke-width:2;stroke-linecap:round;stroke-linejoin:round;stroke-miterlimit:10;}
	.st14{fill:#6EBAFF;stroke:#6EBAFF;stroke-width:2;stroke-linecap:round;stroke-linejoin:round;stroke-miterlimit:10;}
	.st15{fill:#EDD977;stroke:#EDD977;stroke-width:2;stroke-linecap:round;stroke-linejoin:round;stroke-miterlimit:10;}
	.st16{fill:#8C43FF;stroke:#8C43FF;stroke-width:2;stroke-linecap:round;stroke-linejoin:round;stroke-miterlimit:10;}
	.st17{fill:#5252BA;stroke:#5252BA;stroke-width:2;stroke-linecap:round;stroke-linejoin:round;stroke-miterlimit:10;}
	.st18{fill:none;stroke:#E3FAFF;stroke-width:4;stroke-linecap:round;stroke-linejoin:round;stroke-miterlimit:10;}
	.st19{fill:#354C75;stroke:#354C75;stroke-width:2;stroke-linecap:round;stroke-linejoin:round;stroke-miterlimit:10;}
</style><style
     type="text/css"
     id="style23106-2">
	.st0{fill:none;stroke:#000000;stroke-width:2;stroke-linecap:round;stroke-linejoin:round;stroke-miterlimit:10;}
	.st1{fill:none;stroke:#000000;stroke-width:2;stroke-linejoin:round;stroke-miterlimit:10;}
</style><style
     type="text/css"
     id="style4736">
<![CDATA[
	.st0{fill:#D1D1D1;}
	.st1{fill:#454545;}
]]>
</style><style
     type="text/css"
     id="style1">
	.st0{fill:none;stroke:#000000;stroke-width:2;stroke-linecap:round;stroke-linejoin:round;stroke-miterlimit:10;}
</style><style
     type="text/css"
     id="style1-4">
	.linesandangles_een{fill:#111918;}
</style><style
     type="text/css"
     id="style1-2">
	.st0{fill:#000000;}
</style><style
     type="text/css"
     id="style1-5">
	.st0{fill:#000000;}
</style><style
     type="text/css"
     id="style1-1">
	.st0{fill:#000000;}
</style><style
     type="text/css"
     id="style1-0">
	.st0{fill:#F26E91;}
	.st1{fill:#00A779;}
	.st2{fill:#C4FFC9;}
	.st3{fill:#AB630A;}
	.st4{fill:#C98C40;}
	.st5{fill:#15AA78;}
	.st6{fill:#FF9000;}
	.st7{fill:#FCEECF;}
	.st8{fill:#FFE940;}
	.st9{fill:#F0E3CE;}
	.st10{fill:#FFB5C5;}
	.st11{fill:#91EDFF;}
	.st12{fill:#7191F0;}
	.st13{fill:#363636;}
	.st14{fill:#565656;}
	.st15{fill:#F3DF4D;}
	.st16{fill:#CD4A77;}
	.st17{fill:#577AE6;}
	.st18{fill:#F4D100;}
</style><style
     type="text/css"
     id="style1-56">
	.st0{fill:#000000;}
</style></svg>
