<?xml version="1.0" encoding="UTF-8" standalone="no"?>
<!-- Created with Inkscape (http://www.inkscape.org/) -->

<svg
   width="1125.0001"
   height="279.6875"
   viewBox="0 0 297.65626 74.00065"
   version="1.1"
   id="svg5"
   xml:space="preserve"
   xmlns="http://www.w3.org/2000/svg"
   xmlns:svg="http://www.w3.org/2000/svg"><defs
     id="defs2"><style
       id="style6568">.cls-1{fill:none;}.cls-2{clip-path:url(#clip-path);}</style><style
       id="style6568-5">.cls-1{fill:none;}.cls-2{clip-path:url(#clip-path);}</style><style
       id="style6568-9">.cls-1{fill:none;}.cls-2{clip-path:url(#clip-path);}</style><style
       id="style22571">.cls-1{fill:#84d0f7;}.cls-2{fill:#aa392d;}.cls-3{fill:#7c211a;}.cls-4{fill:#e59973;}.cls-5{fill:#2d2d2d;}.cls-6{opacity:0.2;}.cls-7{opacity:0.3;}</style><style
       id="style23309">
      .cls-1 {
        fill: none;
      }
    </style><style
       id="style6568-7">.cls-1{fill:none;}.cls-2{clip-path:url(#clip-path);}</style><style
       id="style6568-5-5">.cls-1{fill:none;}.cls-2{clip-path:url(#clip-path);}</style><style
       id="style6568-9-3">.cls-1{fill:none;}.cls-2{clip-path:url(#clip-path);}</style><style
       id="style22571-5">.cls-1{fill:#84d0f7;}.cls-2{fill:#aa392d;}.cls-3{fill:#7c211a;}.cls-4{fill:#e59973;}.cls-5{fill:#2d2d2d;}.cls-6{opacity:0.2;}.cls-7{opacity:0.3;}</style><style
       id="style23309-6">
      .cls-1 {
        fill: none;
      }
    </style><style
       id="style1-9">
      .cls-1 {
        fill: none;
      }
    </style><style
       id="style1-8">.cls-1{fill:none;stroke:#020202;stroke-miterlimit:10;stroke-width:1.83px;}</style></defs><g
     id="layer1"
     transform="translate(-1611.8307,-1201.9387)"><g
       id="g409"
       transform="matrix(0.37383335,0,0,0.37383335,498.89379,-877.29764)"><path
         d="m 3069.3327,5606.9594 c 0,0 -9.9792,-1.3761 -17.0325,5.6772 -7.0535,7.0535 -5.6774,17.032 -5.6774,17.032"
         stroke="#1c274c"
         stroke-width="12.0434"
         stroke-linecap="round"
         id="path400"
         style="fill:none;fill-opacity:1;stroke:#80e6ff;stroke-opacity:1" /><path
         d="m 3084.5397,5625.7127 8.0339,-8.0339"
         stroke="#1c274c"
         stroke-width="12.0509"
         stroke-linecap="round"
         id="path401"
         style="fill:none;fill-opacity:1;stroke:#b3f0ff;stroke-opacity:1" /><path
         d="m 3082.5806,5662.8325 h -5.88 c -0.252,-0.7373 -0.5478,-1.4535 -0.8892,-2.1446 l 4.1585,-4.1585 c 2.2814,-2.2811 2.2814,-5.9804 0,-8.2619 -2.2811,-2.2811 -5.9804,-2.2811 -8.2618,0 l -4.1579,4.1579 c -0.6914,-0.341 -1.408,-0.6371 -2.1453,-0.8892 v -5.88 c 0,-3.2264 -2.6157,-5.8421 -5.8421,-5.8421 -3.2265,0 -5.8422,2.6157 -5.8422,5.8421 v 5.88 c -0.7373,0.2521 -1.4538,0.5479 -2.1453,0.8892 l -4.1578,-4.1579 c -2.2811,-2.2811 -5.9805,-2.2811 -8.2619,0 -2.2814,2.2811 -2.2814,5.9805 0,8.2619 l 4.1585,4.1585 c -0.341,0.6914 -0.6371,1.4076 -0.8892,2.1446 h -5.8803 c -3.2264,0 -5.8421,2.6157 -5.8421,5.8422 0,3.2264 2.6157,5.8421 5.8421,5.8421 h 5.88 c 0.2521,0.7373 0.5479,1.4539 0.8892,2.1453 l -4.1579,4.1585 c -2.2814,2.2811 -2.2814,5.9804 0,8.2618 2.2821,2.2814 5.9805,2.2814 8.2619,0 l 4.1585,-4.1585 c 0.6914,0.3411 1.4076,0.6372 2.1446,0.8893 v 5.8799 c 0,3.2265 2.6157,5.8421 5.8422,5.8421 3.2264,0 5.8421,-2.6156 5.8421,-5.8421 v -5.8799 c 0.7373,-0.2521 1.4536,-0.5479 2.1447,-0.8893 l 4.1585,4.1585 c 2.2814,2.2814 5.9804,2.2814 8.2618,0 2.2814,-2.2811 2.2814,-5.9804 0,-8.2618 l -4.1585,-4.1585 c 0.3411,-0.6914 0.6372,-1.408 0.8892,-2.1453 h 5.88 c 3.2265,0 5.8421,-2.6157 5.8421,-5.8421 0,-3.2265 -2.6156,-5.8422 -5.8424,-5.8422 z m -23.0178,12.2684 c -3.5434,0 -6.4263,-2.8829 -6.4263,-6.4262 0,-3.5434 2.8829,-6.4263 6.4263,-6.4263 3.5433,0 6.4262,2.8829 6.4262,6.4263 0,3.5433 -2.8829,6.4262 -6.4262,6.4262 z"
         id="path402"
         style="fill:#00c0f5;fill-opacity:1;stroke-width:0.310059" /><path
         d="m 3119.0624,5625.8562 c -9.7355,0 -17.656,7.9208 -17.656,17.6563 0,9.7355 7.9205,17.656 17.656,17.656 9.7355,0 17.6563,-7.9205 17.6563,-17.656 0,-9.7355 -7.9205,-17.6563 -17.6563,-17.6563 z m 0,23.628 c -3.2931,0 -5.9717,-2.6789 -5.9717,-5.9717 0,-3.2928 2.6789,-5.9721 5.9717,-5.9721 3.2928,0 5.972,2.6793 5.972,5.9721 0,3.2928 -2.6789,5.9717 -5.972,5.9717 z"
         id="path403"
         style="fill:#66e1ff;fill-opacity:1;stroke-width:0.310059" /><path
         d="m 3120.2796,5678.7692 c -0.4639,-3.3128 -3.5279,-5.6237 -6.8392,-5.1585 -3.3129,0.4639 -5.6224,3.5257 -5.1585,6.8393 l 0.649,4.6351 h -6.4958 c -3.3454,0 -6.0574,2.7121 -6.0574,6.0574 0,3.3454 2.712,6.0574 6.0574,6.0574 h 13.4611 c 3.6804,0 6.5084,-3.2586 5.9989,-6.8977 z"
         id="path404"
         style="fill:#99ebff;fill-opacity:1;stroke-width:0.321484" /><g
         style="fill:#00ccff;fill-opacity:1"
         id="g408"
         transform="matrix(0.3100586,0,0,0.3100586,2820.534,5574.6622)"><g
           id="g407"
           style="fill:#00ccff;fill-opacity:1">
	<g
   id="g406"
   style="fill:#00ccff;fill-opacity:1">
		<g
   id="g405"
   style="fill:#00ccff;fill-opacity:1"
   transform="translate(-157.33334,208)">
			<path
   d="m 1002.4155,-203.88405 c -141.15899,0 -255.99999,114.841012 -255.99999,256.000012 0,141.158988 114.841,255.999988 255.99999,255.999988 141.159,0 256,-114.841 256,-255.999988 0,-141.159 -114.841,-256.000012 -256,-256.000012 z m 0,474.316 c -120.37999,0 -218.31599,-97.936 -218.31599,-218.315988 0,-120.38 97.936,-218.316012 218.31599,-218.316012 120.38,0 218.316,97.936012 218.316,218.316012 0,120.379988 -97.936,218.315988 -218.316,218.315988 z"
   id="path405"
   style="fill:#00ccff;fill-opacity:1" />
			
			
			
			
		</g>
	</g>
</g></g></g><g
       id="g432"
       style="font-weight:800;font-size:39.5435px;font-family:'Geist Mono';-inkscape-font-specification:'Geist Mono Ultra-Bold';letter-spacing:0px;fill:#ffffff;stroke-width:0.337019"
       aria-label="CAMBRIAN"
       transform="translate(330.91308)"><path
         style="font-weight:bold;font-family:'Space Mono';-inkscape-font-specification:'Space Mono Bold';fill:#ffffff"
         d="m 1372.7019,1246.3866 q 1.5026,0 2.4517,-0.4349 0.9885,-0.4746 1.5026,-1.2259 0.5536,-0.7909 0.7513,-1.7794 0.1978,-1.0282 0.1978,-2.0959 v -0.7117 h 5.2197 v 0.7117 q 0,4.943 -2.6099,7.6319 -2.5703,2.6495 -7.5132,2.6495 -4.7453,0 -7.5133,-2.8867 -2.7681,-2.8867 -2.7681,-8.4228 v -6.1688 q 0,-2.6494 0.7118,-4.7452 0.7118,-2.1353 2.0563,-3.5589 1.3445,-1.4631 3.2426,-2.2144 1.898,-0.7909 4.2707,-0.7909 2.4517,0 4.3497,0.7118 1.8981,0.7118 3.1635,2.0562 1.305,1.3445 1.9377,3.2426 0.6722,1.8981 0.6722,4.2707 v 0.7118 h -5.2197 v -0.7118 q 0,-0.9886 -0.2373,-1.9772 -0.2373,-0.9886 -0.7909,-1.7794 -0.5536,-0.7909 -1.5026,-1.2654 -0.9491,-0.5141 -2.3726,-0.5141 -1.305,0 -2.254,0.5141 -0.9491,0.4745 -1.5818,1.3445 -0.6327,0.8304 -0.949,1.9771 -0.2768,1.1072 -0.2768,2.3331 v 6.9597 q 0,1.3444 0.2768,2.4912 0.2768,1.1072 0.87,1.9376 0.5931,0.8304 1.5421,1.305 0.9886,0.4349 2.3727,0.4349 z"
         id="path425" /><path
         style="font-weight:bold;font-family:'Space Mono';-inkscape-font-specification:'Space Mono Bold';letter-spacing:1.77824px;fill:#ffffff"
         d="m 1401.529,1244.6467 h -9.4113 l -1.3445,5.9315 h -5.457 l 6.6038,-27.6804 h 9.8068 l 6.6037,27.6804 h -5.457 z m -8.3041,-4.9825 h 7.1574 l -3.203,-14.1565 h -0.7118 z"
         id="path426" /><path
         style="font-weight:bold;font-family:'Space Mono';-inkscape-font-specification:'Space Mono Bold';letter-spacing:1.48187px;fill:#ffffff"
         d="m 1411.5719,1222.8978 h 9.1741 l 1.5817,20.7999 v 4.0334 h 0.949 v -4.0334 l 1.5818,-20.7999 h 9.1741 v 27.6804 h -4.7453 v -18.5063 l 0.4746,-6.327 h -0.9491 l -2.0562,24.8333 h -7.8296 l -2.1354,-24.8333 h -0.949 l 0.4745,6.327 v 18.5063 h -4.7452 z"
         id="path427" /><path
         style="font-weight:bold;font-family:'Space Mono';-inkscape-font-specification:'Space Mono Bold';letter-spacing:-0.987908px;fill:#ffffff"
         d="m 1438.2034,1245.5958 h 2.6098 v -17.7155 h -2.6098 v -4.9825 h 12.1398 q 1.9772,0 3.4799,0.5536 1.5422,0.5536 2.5703,1.5027 1.0677,0.949 1.5817,2.2935 0.5536,1.3049 0.5536,2.8471 v 0.4745 q 0,2.3726 -1.3444,3.7962 -1.305,1.4236 -3.3217,1.9772 v 0.7118 q 2.0167,0.5536 3.3217,2.0167 1.3444,1.4236 1.3444,3.7962 v 0.4745 q 0,1.5422 -0.5536,2.8867 -0.514,1.3049 -1.5817,2.2935 -1.0281,0.949 -2.5703,1.5026 -1.5027,0.5536 -3.4799,0.5536 h -12.1398 z m 7.8296,0 h 3.7962 q 1.6608,0 2.6889,-0.7118 1.0282,-0.7118 1.0282,-2.3726 v -0.2373 q 0,-1.6608 -1.0282,-2.3726 -1.0281,-0.7118 -2.6889,-0.7118 h -3.7962 z m 0,-11.3886 h 3.7962 q 1.6608,0 2.6889,-0.6722 1.0282,-0.7118 1.0282,-2.3726 v -0.2373 q 0,-1.6608 -1.0282,-2.333 -1.0281,-0.7118 -2.6889,-0.7118 h -3.7962 z"
         id="path428" /><path
         style="font-weight:bold;font-family:'Space Mono';-inkscape-font-specification:'Space Mono Bold';letter-spacing:-1.48187px;fill:#ffffff"
         d="m 1481.0692,1250.5782 h -5.2198 v -8.3041 q 0,-0.949 -0.514,-1.5422 -0.4745,-0.5931 -1.6213,-0.5931 h -6.0106 v 10.4394 h -5.2198 v -27.6804 h 10.5977 q 2.1354,0 3.7566,0.5932 1.6213,0.5931 2.689,1.6608 1.1072,1.0281 1.6608,2.4121 0.5932,1.3841 0.5932,2.9658 v 0.949 q 0,1.7004 -0.9095,3.2031 -0.9095,1.4631 -2.8076,2.2539 v 0.7118 q 1.384,0.1582 2.1749,1.0677 0.8304,0.9095 0.8304,2.2935 z m -13.3657,-15.4219 h 4.9825 q 1.8981,0 2.8866,-0.87 0.9886,-0.9095 0.9886,-2.5308 v -0.4745 q 0,-1.384 -0.9886,-2.3726 -0.9885,-1.0281 -2.8866,-1.0281 h -4.9825 z"
         id="path429" /><path
         style="font-weight:bold;font-family:'Space Mono';-inkscape-font-specification:'Space Mono Bold';fill:#ffffff"
         d="m 1485.1629,1222.8978 h 18.5064 v 4.9825 h -6.6433 v 17.7155 h 6.6433 v 4.9824 h -18.5064 v -4.9824 h 6.6433 v -17.7155 h -6.6433 z"
         id="path430" /><path
         style="font-weight:bold;font-family:'Space Mono';-inkscape-font-specification:'Space Mono Bold';letter-spacing:0.493956px;fill:#ffffff"
         d="m 1523.3224,1244.6467 h -9.4114 l -1.3444,5.9315 h -5.457 l 6.6037,-27.6804 h 9.8068 l 6.6038,27.6804 h -5.457 z m -8.3041,-4.9825 h 7.1573 l -3.203,-14.1565 h -0.7118 z"
         id="path431" /><path
         style="font-weight:bold;font-family:'Space Mono';-inkscape-font-specification:'Space Mono Bold';fill:#ffffff"
         d="m 1547.0679,1247.9684 h 0.7118 v -25.0706 h 5.2197 v 27.6804 h -10.2022 l -3.2426,-25.0705 h -0.7118 v 25.0705 h -5.2197 v -27.6804 h 10.2022 z"
         id="path432" /></g></g><style
     type="text/css"
     id="style1941">
	.st0{fill:none;stroke:#000000;stroke-width:2;stroke-linecap:round;stroke-linejoin:round;stroke-miterlimit:10;}
</style><style
     type="text/css"
     id="style1941-0">
	.st0{fill:none;stroke:#000000;stroke-width:2;stroke-linecap:round;stroke-linejoin:round;stroke-miterlimit:10;}
</style><style
     type="text/css"
     id="style1941-7">
	.st0{fill:none;stroke:#000000;stroke-width:2;stroke-linecap:round;stroke-linejoin:round;stroke-miterlimit:10;}
</style><style
     type="text/css"
     id="style22485">
	.st0{fill:none;stroke:#6C3DB7;stroke-width:4;stroke-linecap:round;stroke-linejoin:round;stroke-miterlimit:10;}
	.st1{fill:none;stroke:#1F992A;stroke-width:4;stroke-linecap:round;stroke-linejoin:round;stroke-miterlimit:10;}
	.st2{fill:none;stroke:#6A83BA;stroke-width:4;stroke-linecap:round;stroke-linejoin:round;stroke-miterlimit:10;}
	.st3{fill:#8A8AFF;stroke:#8A8AFF;stroke-width:2;stroke-linecap:round;stroke-linejoin:round;stroke-miterlimit:10;}
	.st4{fill:#6C3DB7;stroke:#6C3DB7;stroke-width:2;stroke-linecap:round;stroke-linejoin:round;stroke-miterlimit:10;}
	.st5{fill:#A576FF;stroke:#A576FF;stroke-width:2;stroke-linecap:round;stroke-linejoin:round;stroke-miterlimit:10;}
	.st6{fill:#F2BB41;stroke:#F2BB41;stroke-width:2;stroke-linecap:round;stroke-linejoin:round;stroke-miterlimit:10;}
	.st7{fill:#E08838;stroke:#E08838;stroke-width:2;stroke-linecap:round;stroke-linejoin:round;stroke-miterlimit:10;}
	.st8{fill:#1F992A;stroke:#1F992A;stroke-width:2;stroke-linecap:round;stroke-linejoin:round;stroke-miterlimit:10;}
	.st9{fill:#5EC11E;stroke:#5EC11E;stroke-width:2;stroke-linecap:round;stroke-linejoin:round;stroke-miterlimit:10;}
	.st10{fill:#E3FAFF;stroke:#E3FAFF;stroke-width:2;stroke-linecap:round;stroke-linejoin:round;stroke-miterlimit:10;}
	.st11{fill:#FF5093;stroke:#FF5093;stroke-width:2;stroke-linecap:round;stroke-linejoin:round;stroke-miterlimit:10;}
	.st12{fill:#B7257F;stroke:#B7257F;stroke-width:2;stroke-linecap:round;stroke-linejoin:round;stroke-miterlimit:10;}
	.st13{fill:#5189E5;stroke:#5189E5;stroke-width:2;stroke-linecap:round;stroke-linejoin:round;stroke-miterlimit:10;}
	.st14{fill:#6EBAFF;stroke:#6EBAFF;stroke-width:2;stroke-linecap:round;stroke-linejoin:round;stroke-miterlimit:10;}
	.st15{fill:#EDD977;stroke:#EDD977;stroke-width:2;stroke-linecap:round;stroke-linejoin:round;stroke-miterlimit:10;}
	.st16{fill:#8C43FF;stroke:#8C43FF;stroke-width:2;stroke-linecap:round;stroke-linejoin:round;stroke-miterlimit:10;}
	.st17{fill:#5252BA;stroke:#5252BA;stroke-width:2;stroke-linecap:round;stroke-linejoin:round;stroke-miterlimit:10;}
	.st18{fill:none;stroke:#E3FAFF;stroke-width:4;stroke-linecap:round;stroke-linejoin:round;stroke-miterlimit:10;}
	.st19{fill:#354C75;stroke:#354C75;stroke-width:2;stroke-linecap:round;stroke-linejoin:round;stroke-miterlimit:10;}
</style><style
     type="text/css"
     id="style23106">
	.st0{fill:none;stroke:#000000;stroke-width:2;stroke-linecap:round;stroke-linejoin:round;stroke-miterlimit:10;}
	.st1{fill:none;stroke:#000000;stroke-width:2;stroke-linejoin:round;stroke-miterlimit:10;}
</style><style
     type="text/css"
     id="style1941-1">
	.st0{fill:none;stroke:#000000;stroke-width:2;stroke-linecap:round;stroke-linejoin:round;stroke-miterlimit:10;}
</style><style
     type="text/css"
     id="style1941-0-8">
	.st0{fill:none;stroke:#000000;stroke-width:2;stroke-linecap:round;stroke-linejoin:round;stroke-miterlimit:10;}
</style><style
     type="text/css"
     id="style1941-7-7">
	.st0{fill:none;stroke:#000000;stroke-width:2;stroke-linecap:round;stroke-linejoin:round;stroke-miterlimit:10;}
</style><style
     type="text/css"
     id="style22485-9">
	.st0{fill:none;stroke:#6C3DB7;stroke-width:4;stroke-linecap:round;stroke-linejoin:round;stroke-miterlimit:10;}
	.st1{fill:none;stroke:#1F992A;stroke-width:4;stroke-linecap:round;stroke-linejoin:round;stroke-miterlimit:10;}
	.st2{fill:none;stroke:#6A83BA;stroke-width:4;stroke-linecap:round;stroke-linejoin:round;stroke-miterlimit:10;}
	.st3{fill:#8A8AFF;stroke:#8A8AFF;stroke-width:2;stroke-linecap:round;stroke-linejoin:round;stroke-miterlimit:10;}
	.st4{fill:#6C3DB7;stroke:#6C3DB7;stroke-width:2;stroke-linecap:round;stroke-linejoin:round;stroke-miterlimit:10;}
	.st5{fill:#A576FF;stroke:#A576FF;stroke-width:2;stroke-linecap:round;stroke-linejoin:round;stroke-miterlimit:10;}
	.st6{fill:#F2BB41;stroke:#F2BB41;stroke-width:2;stroke-linecap:round;stroke-linejoin:round;stroke-miterlimit:10;}
	.st7{fill:#E08838;stroke:#E08838;stroke-width:2;stroke-linecap:round;stroke-linejoin:round;stroke-miterlimit:10;}
	.st8{fill:#1F992A;stroke:#1F992A;stroke-width:2;stroke-linecap:round;stroke-linejoin:round;stroke-miterlimit:10;}
	.st9{fill:#5EC11E;stroke:#5EC11E;stroke-width:2;stroke-linecap:round;stroke-linejoin:round;stroke-miterlimit:10;}
	.st10{fill:#E3FAFF;stroke:#E3FAFF;stroke-width:2;stroke-linecap:round;stroke-linejoin:round;stroke-miterlimit:10;}
	.st11{fill:#FF5093;stroke:#FF5093;stroke-width:2;stroke-linecap:round;stroke-linejoin:round;stroke-miterlimit:10;}
	.st12{fill:#B7257F;stroke:#B7257F;stroke-width:2;stroke-linecap:round;stroke-linejoin:round;stroke-miterlimit:10;}
	.st13{fill:#5189E5;stroke:#5189E5;stroke-width:2;stroke-linecap:round;stroke-linejoin:round;stroke-miterlimit:10;}
	.st14{fill:#6EBAFF;stroke:#6EBAFF;stroke-width:2;stroke-linecap:round;stroke-linejoin:round;stroke-miterlimit:10;}
	.st15{fill:#EDD977;stroke:#EDD977;stroke-width:2;stroke-linecap:round;stroke-linejoin:round;stroke-miterlimit:10;}
	.st16{fill:#8C43FF;stroke:#8C43FF;stroke-width:2;stroke-linecap:round;stroke-linejoin:round;stroke-miterlimit:10;}
	.st17{fill:#5252BA;stroke:#5252BA;stroke-width:2;stroke-linecap:round;stroke-linejoin:round;stroke-miterlimit:10;}
	.st18{fill:none;stroke:#E3FAFF;stroke-width:4;stroke-linecap:round;stroke-linejoin:round;stroke-miterlimit:10;}
	.st19{fill:#354C75;stroke:#354C75;stroke-width:2;stroke-linecap:round;stroke-linejoin:round;stroke-miterlimit:10;}
</style><style
     type="text/css"
     id="style23106-2">
	.st0{fill:none;stroke:#000000;stroke-width:2;stroke-linecap:round;stroke-linejoin:round;stroke-miterlimit:10;}
	.st1{fill:none;stroke:#000000;stroke-width:2;stroke-linejoin:round;stroke-miterlimit:10;}
</style><style
     type="text/css"
     id="style4736">
<![CDATA[
	.st0{fill:#D1D1D1;}
	.st1{fill:#454545;}
]]>
</style><style
     type="text/css"
     id="style1">
	.st0{fill:none;stroke:#000000;stroke-width:2;stroke-linecap:round;stroke-linejoin:round;stroke-miterlimit:10;}
</style><style
     type="text/css"
     id="style1-4">
	.linesandangles_een{fill:#111918;}
</style><style
     type="text/css"
     id="style1-2">
	.st0{fill:#000000;}
</style><style
     type="text/css"
     id="style1-5">
	.st0{fill:#000000;}
</style><style
     type="text/css"
     id="style1-1">
	.st0{fill:#000000;}
</style><style
     type="text/css"
     id="style1-0">
	.st0{fill:#F26E91;}
	.st1{fill:#00A779;}
	.st2{fill:#C4FFC9;}
	.st3{fill:#AB630A;}
	.st4{fill:#C98C40;}
	.st5{fill:#15AA78;}
	.st6{fill:#FF9000;}
	.st7{fill:#FCEECF;}
	.st8{fill:#FFE940;}
	.st9{fill:#F0E3CE;}
	.st10{fill:#FFB5C5;}
	.st11{fill:#91EDFF;}
	.st12{fill:#7191F0;}
	.st13{fill:#363636;}
	.st14{fill:#565656;}
	.st15{fill:#F3DF4D;}
	.st16{fill:#CD4A77;}
	.st17{fill:#577AE6;}
	.st18{fill:#F4D100;}
</style><style
     type="text/css"
     id="style1-56">
	.st0{fill:#000000;}
</style></svg>
