<?xml version="1.0" encoding="UTF-8" standalone="no"?>
<!-- Created with Inkscape (http://www.inkscape.org/) -->

<svg
   width="805.43884"
   height="194.45436"
   viewBox="0 0 213.10568 51.449382"
   version="1.1"
   id="svg5"
   xml:space="preserve"
   xmlns:xlink="http://www.w3.org/1999/xlink"
   xmlns="http://www.w3.org/2000/svg"
   xmlns:svg="http://www.w3.org/2000/svg"><defs
     id="defs2"><linearGradient
       id="linearGradient465"><stop
         style="stop-color:#00ccff;stop-opacity:1;"
         offset="0"
         id="stop465" /><stop
         style="stop-color:#00e599;stop-opacity:1;"
         offset="0.5"
         id="stop467" /><stop
         style="stop-color:#3355ff;stop-opacity:1;"
         offset="1"
         id="stop466" /></linearGradient><linearGradient
       id="linearGradient447"><stop
         style="stop-color:#00ccff;stop-opacity:1;"
         offset="0"
         id="stop447" /><stop
         style="stop-color:#000000;stop-opacity:0;"
         offset="1"
         id="stop448" /></linearGradient><style
       id="style6568">.cls-1{fill:none;}.cls-2{clip-path:url(#clip-path);}</style><style
       id="style6568-5">.cls-1{fill:none;}.cls-2{clip-path:url(#clip-path);}</style><style
       id="style6568-9">.cls-1{fill:none;}.cls-2{clip-path:url(#clip-path);}</style><style
       id="style22571">.cls-1{fill:#84d0f7;}.cls-2{fill:#aa392d;}.cls-3{fill:#7c211a;}.cls-4{fill:#e59973;}.cls-5{fill:#2d2d2d;}.cls-6{opacity:0.2;}.cls-7{opacity:0.3;}</style><style
       id="style23309">
      .cls-1 {
        fill: none;
      }
    </style><style
       id="style6568-7">.cls-1{fill:none;}.cls-2{clip-path:url(#clip-path);}</style><style
       id="style6568-5-5">.cls-1{fill:none;}.cls-2{clip-path:url(#clip-path);}</style><style
       id="style6568-9-3">.cls-1{fill:none;}.cls-2{clip-path:url(#clip-path);}</style><style
       id="style22571-5">.cls-1{fill:#84d0f7;}.cls-2{fill:#aa392d;}.cls-3{fill:#7c211a;}.cls-4{fill:#e59973;}.cls-5{fill:#2d2d2d;}.cls-6{opacity:0.2;}.cls-7{opacity:0.3;}</style><style
       id="style23309-6">
      .cls-1 {
        fill: none;
      }
    </style><style
       id="style1-9">
      .cls-1 {
        fill: none;
      }
    </style><style
       id="style1-8">.cls-1{fill:none;stroke:#020202;stroke-miterlimit:10;stroke-width:1.83px;}</style><linearGradient
       xlink:href="#linearGradient447"
       id="linearGradient448"
       x1="1733.0457"
       y1="994.57251"
       x2="1923.9615"
       y2="994.57251"
       gradientUnits="userSpaceOnUse" /><linearGradient
       xlink:href="#linearGradient465"
       id="linearGradient466"
       x1="1725.7727"
       y1="982.17017"
       x2="1916.3516"
       y2="982.17017"
       gradientUnits="userSpaceOnUse"
       gradientTransform="translate(56.109392,6.8395435)" /><linearGradient
       xlink:href="#linearGradient447"
       id="linearGradient1"
       gradientUnits="userSpaceOnUse"
       x1="1733.0457"
       y1="994.57251"
       x2="1923.9615"
       y2="994.57251" /></defs><g
     id="layer1"
     transform="translate(-1289.8153,-1308.0607)"><g
       id="text440"
       style="font-weight:800;font-size:39.5435px;font-family:'Geist Mono';-inkscape-font-specification:'Geist Mono Ultra-Bold';letter-spacing:0px;stroke:url(#linearGradient448);stroke-width:0.337019"
       aria-label="CAMBRIAN"
       transform="translate(-481.21094,345.61198)"><g
         id="g465"
         style="stroke:url(#linearGradient1)"><path
           id="path447"
           style="font-weight:bold;font-family:'Space Mono';-inkscape-font-specification:'Space Mono Bold';fill:url(#linearGradient466);stroke:none;stroke-opacity:1"
           d="m 1966.5296,1000.24 h 0.7118 v -25.07053 h 5.2197 v 27.68043 h -10.2022 l -3.2426,-25.07056 h -0.7118 v 25.07056 h -5.2197 v -27.68043 h 10.2022 z m -23.7455,-3.32156 h -9.4114 l -1.3445,5.93146 h -5.457 l 6.6038,-27.68043 h 9.8068 l 6.6038,27.68043 h -5.4571 z m -8.3042,-4.9825 h 7.1574 l -3.203,-14.1566 h -0.7118 z m -29.8553,-16.76647 h 18.5064 v 4.98248 h -6.6433 v 17.71549 h 6.6433 v 4.98246 h -18.5064 v -4.98246 h 6.6433 v -17.71549 h -6.6433 z m -4.0937,27.68043 h -5.2198 v -8.30406 q 0,-0.9491 -0.514,-1.5422 -0.4746,-0.5932 -1.6213,-0.5932 h -6.0106 v 10.43946 h -5.2198 v -27.68043 h 10.5977 q 2.1353,0 3.7566,0.59315 1.6213,0.59316 2.689,1.66083 1.1072,1.02813 1.6608,2.41215 0.5932,1.38403 0.5932,2.96577 v 0.94907 q 0,1.7003 -0.9095,3.203 -0.9096,1.4631 -2.8076,2.254 v 0.7118 q 1.384,0.1581 2.1749,1.0676 0.8304,0.9095 0.8304,2.2936 z m -13.3657,-15.42196 h 4.9824 q 1.8981,0 2.8867,-0.8699 0.9886,-0.9095 0.9886,-2.5308 v -0.47455 q 0,-1.38402 -0.9886,-2.37261 -0.9886,-1.02813 -2.8867,-1.02813 h -4.9824 z m -29.5001,10.4395 h 2.6098 v -17.71549 h -2.6098 v -4.98248 h 12.1398 q 1.9772,0 3.4798,0.55361 1.5422,0.55361 2.5704,1.50265 1.0676,0.94905 1.5817,2.29353 0.5536,1.30493 0.5536,2.84713 v 0.47452 q 0,2.37263 -1.3445,3.79623 -1.3049,1.4235 -3.3216,1.9771 v 0.7118 q 2.0167,0.5536 3.3216,2.0167 1.3445,1.4236 1.3445,3.7962 v 0.4746 q 0,1.5422 -0.5536,2.8866 -0.5141,1.305 -1.5817,2.29356 -1.0282,0.949 -2.5704,1.5026 -1.5026,0.5536 -3.4798,0.5536 h -12.1398 z m 7.8296,0 h 3.7961 q 1.6609,0 2.689,-0.7117 1.0281,-0.7118 1.0281,-2.3727 v -0.2372 q 0,-1.6609 -1.0281,-2.3727 -1.0281,-0.7117 -2.689,-0.7117 h -3.7961 z m 0,-11.3885 h 3.7961 q 1.6609,0 2.689,-0.6723 1.0281,-0.7117 1.0281,-2.37258 v -0.23726 q 0,-1.66083 -1.0281,-2.33307 -1.0281,-0.71178 -2.689,-0.71178 h -3.7961 z m -34.4612,-11.30947 h 9.1741 l 1.5818,20.79997 v 4.03336 h 0.949 v -4.03336 l 1.5818,-20.79997 h 9.174 v 27.68043 h -4.7452 v -18.50636 l 0.4745,-6.32694 h -0.949 l -2.0563,24.8333 h -7.8296 l -2.1353,-24.8333 h -0.9491 l 0.4746,6.32694 v 18.50636 h -4.7453 z m -10.0428,21.74897 h -9.4113 l -1.3445,5.93146 h -5.457 l 6.6038,-27.68043 h 9.8067 l 6.6038,27.68043 h -5.457 z m -8.3041,-4.9825 h 7.1574 l -3.2031,-14.1566 h -0.7117 z m -20.5231,6.7224 q 1.5027,0 2.4517,-0.435 0.9886,-0.4745 1.5027,-1.2258 0.5536,-0.7909 0.7513,-1.7795 0.1977,-1.0281 0.1977,-2.0958 v -0.7118 h 5.2198 v 0.7118 q 0,4.943 -2.6099,7.63186 -2.5703,2.6494 -7.5133,2.6494 -4.7452,0 -7.5132,-2.8866 -2.7681,-2.88666 -2.7681,-8.42276 v -6.1688 q 0,-2.64945 0.7118,-4.74526 0.7118,-2.13535 2.0563,-3.55891 1.3445,-1.46311 3.2425,-2.21444 1.8981,-0.79087 4.2707,-0.79087 2.4517,0 4.3498,0.71178 1.8981,0.71179 3.1635,2.05627 1.3049,1.34448 1.9376,3.24256 0.6723,1.89809 0.6723,4.27067 v 0.7118 h -5.2198 v -0.7118 q 0,-0.9886 -0.2372,-1.97714 -0.2373,-0.98859 -0.7909,-1.77946 -0.5536,-0.79087 -1.5027,-1.26539 -0.949,-0.51407 -2.3726,-0.51407 -1.3049,0 -2.2539,0.51407 -0.9491,0.47452 -1.5818,1.34448 -0.6327,0.83041 -0.949,1.97717 -0.2768,1.10724 -0.2768,2.33304 v 6.9597 q 0,1.3445 0.2768,2.4913 0.2768,1.1072 0.8699,1.9376 0.5932,0.8304 1.5422,1.3049 0.9886,0.435 2.3726,0.435 z" /></g></g></g><style
     type="text/css"
     id="style1941">
	.st0{fill:none;stroke:#000000;stroke-width:2;stroke-linecap:round;stroke-linejoin:round;stroke-miterlimit:10;}
</style><style
     type="text/css"
     id="style1941-0">
	.st0{fill:none;stroke:#000000;stroke-width:2;stroke-linecap:round;stroke-linejoin:round;stroke-miterlimit:10;}
</style><style
     type="text/css"
     id="style1941-7">
	.st0{fill:none;stroke:#000000;stroke-width:2;stroke-linecap:round;stroke-linejoin:round;stroke-miterlimit:10;}
</style><style
     type="text/css"
     id="style22485">
	.st0{fill:none;stroke:#6C3DB7;stroke-width:4;stroke-linecap:round;stroke-linejoin:round;stroke-miterlimit:10;}
	.st1{fill:none;stroke:#1F992A;stroke-width:4;stroke-linecap:round;stroke-linejoin:round;stroke-miterlimit:10;}
	.st2{fill:none;stroke:#6A83BA;stroke-width:4;stroke-linecap:round;stroke-linejoin:round;stroke-miterlimit:10;}
	.st3{fill:#8A8AFF;stroke:#8A8AFF;stroke-width:2;stroke-linecap:round;stroke-linejoin:round;stroke-miterlimit:10;}
	.st4{fill:#6C3DB7;stroke:#6C3DB7;stroke-width:2;stroke-linecap:round;stroke-linejoin:round;stroke-miterlimit:10;}
	.st5{fill:#A576FF;stroke:#A576FF;stroke-width:2;stroke-linecap:round;stroke-linejoin:round;stroke-miterlimit:10;}
	.st6{fill:#F2BB41;stroke:#F2BB41;stroke-width:2;stroke-linecap:round;stroke-linejoin:round;stroke-miterlimit:10;}
	.st7{fill:#E08838;stroke:#E08838;stroke-width:2;stroke-linecap:round;stroke-linejoin:round;stroke-miterlimit:10;}
	.st8{fill:#1F992A;stroke:#1F992A;stroke-width:2;stroke-linecap:round;stroke-linejoin:round;stroke-miterlimit:10;}
	.st9{fill:#5EC11E;stroke:#5EC11E;stroke-width:2;stroke-linecap:round;stroke-linejoin:round;stroke-miterlimit:10;}
	.st10{fill:#E3FAFF;stroke:#E3FAFF;stroke-width:2;stroke-linecap:round;stroke-linejoin:round;stroke-miterlimit:10;}
	.st11{fill:#FF5093;stroke:#FF5093;stroke-width:2;stroke-linecap:round;stroke-linejoin:round;stroke-miterlimit:10;}
	.st12{fill:#B7257F;stroke:#B7257F;stroke-width:2;stroke-linecap:round;stroke-linejoin:round;stroke-miterlimit:10;}
	.st13{fill:#5189E5;stroke:#5189E5;stroke-width:2;stroke-linecap:round;stroke-linejoin:round;stroke-miterlimit:10;}
	.st14{fill:#6EBAFF;stroke:#6EBAFF;stroke-width:2;stroke-linecap:round;stroke-linejoin:round;stroke-miterlimit:10;}
	.st15{fill:#EDD977;stroke:#EDD977;stroke-width:2;stroke-linecap:round;stroke-linejoin:round;stroke-miterlimit:10;}
	.st16{fill:#8C43FF;stroke:#8C43FF;stroke-width:2;stroke-linecap:round;stroke-linejoin:round;stroke-miterlimit:10;}
	.st17{fill:#5252BA;stroke:#5252BA;stroke-width:2;stroke-linecap:round;stroke-linejoin:round;stroke-miterlimit:10;}
	.st18{fill:none;stroke:#E3FAFF;stroke-width:4;stroke-linecap:round;stroke-linejoin:round;stroke-miterlimit:10;}
	.st19{fill:#354C75;stroke:#354C75;stroke-width:2;stroke-linecap:round;stroke-linejoin:round;stroke-miterlimit:10;}
</style><style
     type="text/css"
     id="style23106">
	.st0{fill:none;stroke:#000000;stroke-width:2;stroke-linecap:round;stroke-linejoin:round;stroke-miterlimit:10;}
	.st1{fill:none;stroke:#000000;stroke-width:2;stroke-linejoin:round;stroke-miterlimit:10;}
</style><style
     type="text/css"
     id="style1941-1">
	.st0{fill:none;stroke:#000000;stroke-width:2;stroke-linecap:round;stroke-linejoin:round;stroke-miterlimit:10;}
</style><style
     type="text/css"
     id="style1941-0-8">
	.st0{fill:none;stroke:#000000;stroke-width:2;stroke-linecap:round;stroke-linejoin:round;stroke-miterlimit:10;}
</style><style
     type="text/css"
     id="style1941-7-7">
	.st0{fill:none;stroke:#000000;stroke-width:2;stroke-linecap:round;stroke-linejoin:round;stroke-miterlimit:10;}
</style><style
     type="text/css"
     id="style22485-9">
	.st0{fill:none;stroke:#6C3DB7;stroke-width:4;stroke-linecap:round;stroke-linejoin:round;stroke-miterlimit:10;}
	.st1{fill:none;stroke:#1F992A;stroke-width:4;stroke-linecap:round;stroke-linejoin:round;stroke-miterlimit:10;}
	.st2{fill:none;stroke:#6A83BA;stroke-width:4;stroke-linecap:round;stroke-linejoin:round;stroke-miterlimit:10;}
	.st3{fill:#8A8AFF;stroke:#8A8AFF;stroke-width:2;stroke-linecap:round;stroke-linejoin:round;stroke-miterlimit:10;}
	.st4{fill:#6C3DB7;stroke:#6C3DB7;stroke-width:2;stroke-linecap:round;stroke-linejoin:round;stroke-miterlimit:10;}
	.st5{fill:#A576FF;stroke:#A576FF;stroke-width:2;stroke-linecap:round;stroke-linejoin:round;stroke-miterlimit:10;}
	.st6{fill:#F2BB41;stroke:#F2BB41;stroke-width:2;stroke-linecap:round;stroke-linejoin:round;stroke-miterlimit:10;}
	.st7{fill:#E08838;stroke:#E08838;stroke-width:2;stroke-linecap:round;stroke-linejoin:round;stroke-miterlimit:10;}
	.st8{fill:#1F992A;stroke:#1F992A;stroke-width:2;stroke-linecap:round;stroke-linejoin:round;stroke-miterlimit:10;}
	.st9{fill:#5EC11E;stroke:#5EC11E;stroke-width:2;stroke-linecap:round;stroke-linejoin:round;stroke-miterlimit:10;}
	.st10{fill:#E3FAFF;stroke:#E3FAFF;stroke-width:2;stroke-linecap:round;stroke-linejoin:round;stroke-miterlimit:10;}
	.st11{fill:#FF5093;stroke:#FF5093;stroke-width:2;stroke-linecap:round;stroke-linejoin:round;stroke-miterlimit:10;}
	.st12{fill:#B7257F;stroke:#B7257F;stroke-width:2;stroke-linecap:round;stroke-linejoin:round;stroke-miterlimit:10;}
	.st13{fill:#5189E5;stroke:#5189E5;stroke-width:2;stroke-linecap:round;stroke-linejoin:round;stroke-miterlimit:10;}
	.st14{fill:#6EBAFF;stroke:#6EBAFF;stroke-width:2;stroke-linecap:round;stroke-linejoin:round;stroke-miterlimit:10;}
	.st15{fill:#EDD977;stroke:#EDD977;stroke-width:2;stroke-linecap:round;stroke-linejoin:round;stroke-miterlimit:10;}
	.st16{fill:#8C43FF;stroke:#8C43FF;stroke-width:2;stroke-linecap:round;stroke-linejoin:round;stroke-miterlimit:10;}
	.st17{fill:#5252BA;stroke:#5252BA;stroke-width:2;stroke-linecap:round;stroke-linejoin:round;stroke-miterlimit:10;}
	.st18{fill:none;stroke:#E3FAFF;stroke-width:4;stroke-linecap:round;stroke-linejoin:round;stroke-miterlimit:10;}
	.st19{fill:#354C75;stroke:#354C75;stroke-width:2;stroke-linecap:round;stroke-linejoin:round;stroke-miterlimit:10;}
</style><style
     type="text/css"
     id="style23106-2">
	.st0{fill:none;stroke:#000000;stroke-width:2;stroke-linecap:round;stroke-linejoin:round;stroke-miterlimit:10;}
	.st1{fill:none;stroke:#000000;stroke-width:2;stroke-linejoin:round;stroke-miterlimit:10;}
</style><style
     type="text/css"
     id="style4736">
<![CDATA[
	.st0{fill:#D1D1D1;}
	.st1{fill:#454545;}
]]>
</style><style
     type="text/css"
     id="style1">
	.st0{fill:none;stroke:#000000;stroke-width:2;stroke-linecap:round;stroke-linejoin:round;stroke-miterlimit:10;}
</style><style
     type="text/css"
     id="style1-4">
	.linesandangles_een{fill:#111918;}
</style><style
     type="text/css"
     id="style1-2">
	.st0{fill:#000000;}
</style><style
     type="text/css"
     id="style1-5">
	.st0{fill:#000000;}
</style><style
     type="text/css"
     id="style1-1">
	.st0{fill:#000000;}
</style><style
     type="text/css"
     id="style1-0">
	.st0{fill:#F26E91;}
	.st1{fill:#00A779;}
	.st2{fill:#C4FFC9;}
	.st3{fill:#AB630A;}
	.st4{fill:#C98C40;}
	.st5{fill:#15AA78;}
	.st6{fill:#FF9000;}
	.st7{fill:#FCEECF;}
	.st8{fill:#FFE940;}
	.st9{fill:#F0E3CE;}
	.st10{fill:#FFB5C5;}
	.st11{fill:#91EDFF;}
	.st12{fill:#7191F0;}
	.st13{fill:#363636;}
	.st14{fill:#565656;}
	.st15{fill:#F3DF4D;}
	.st16{fill:#CD4A77;}
	.st17{fill:#577AE6;}
	.st18{fill:#F4D100;}
</style><style
     type="text/css"
     id="style1-56">
	.st0{fill:#000000;}
</style></svg>
