<?xml version="1.0" encoding="UTF-8" standalone="no"?>
<!-- Created with Inkscape (http://www.inkscape.org/) -->

<svg
   width="1000.0001"
   height="250.00002"
   viewBox="0 0 264.58335 66.145837"
   version="1.1"
   id="svg5"
   xml:space="preserve"
   xmlns:xlink="http://www.w3.org/1999/xlink"
   xmlns="http://www.w3.org/2000/svg"
   xmlns:svg="http://www.w3.org/2000/svg"><defs
     id="defs2"><radialGradient
       id="radialGradient266"
       cx="77.121002"
       cy="66.694"
       r="76.183998"
       gradientTransform="rotate(-3.714,-608.323,2.714)"
       gradientUnits="userSpaceOnUse"><stop
         offset="0.1182308"
         stop-color="#ce93d8"
         id="stop264"
         style="stop-color:#00e54c;stop-opacity:1;" /><stop
         offset="0.56412309"
         stop-color="#ce93d8"
         id="stop265"
         style="stop-color:#0099e5;stop-opacity:1;" /><stop
         offset="0.96958756"
         stop-color="#ab47bc"
         id="stop266"
         style="stop-color:#5900b2;stop-opacity:1;" /></radialGradient><style
       id="style6568">.cls-1{fill:none;}.cls-2{clip-path:url(#clip-path);}</style><style
       id="style6568-5">.cls-1{fill:none;}.cls-2{clip-path:url(#clip-path);}</style><style
       id="style6568-9">.cls-1{fill:none;}.cls-2{clip-path:url(#clip-path);}</style><style
       id="style22571">.cls-1{fill:#84d0f7;}.cls-2{fill:#aa392d;}.cls-3{fill:#7c211a;}.cls-4{fill:#e59973;}.cls-5{fill:#2d2d2d;}.cls-6{opacity:0.2;}.cls-7{opacity:0.3;}</style><style
       id="style23309">
      .cls-1 {
        fill: none;
      }
    </style><style
       id="style6568-7">.cls-1{fill:none;}.cls-2{clip-path:url(#clip-path);}</style><style
       id="style6568-5-5">.cls-1{fill:none;}.cls-2{clip-path:url(#clip-path);}</style><style
       id="style6568-9-3">.cls-1{fill:none;}.cls-2{clip-path:url(#clip-path);}</style><style
       id="style22571-5">.cls-1{fill:#84d0f7;}.cls-2{fill:#aa392d;}.cls-3{fill:#7c211a;}.cls-4{fill:#e59973;}.cls-5{fill:#2d2d2d;}.cls-6{opacity:0.2;}.cls-7{opacity:0.3;}</style><style
       id="style23309-6">
      .cls-1 {
        fill: none;
      }
    </style><style
       id="style1-9">
      .cls-1 {
        fill: none;
      }
    </style><style
       id="style1-8">.cls-1{fill:none;stroke:#020202;stroke-miterlimit:10;stroke-width:1.83px;}</style><radialGradient
       xlink:href="#radialGradient266"
       id="radialGradient243"
       gradientUnits="userSpaceOnUse"
       gradientTransform="matrix(1.5528859,-0.50528656,0.50825674,1.5620142,-595.57753,677.80825)"
       cx="1135.8374"
       cy="-115.1003"
       fx="1135.8374"
       fy="-115.1003"
       r="256" /></defs><g
     id="layer1"
     transform="translate(-1611.8307,-1201.9388)"><g
       id="g234"
       transform="matrix(0.37383335,0,0,0.37383335,490.44944,-878.50241)"><g
         style="fill:#00ccff;fill-opacity:1"
         id="g233"
         transform="matrix(0.3100586,0,0,0.3100586,2820.534,5574.6622)"><g
           id="g232"
           style="fill:#00ccff;fill-opacity:1">
	<g
   id="g231"
   style="fill:#00ccff;fill-opacity:1">
		<g
   id="g230"
   style="fill:#00ccff;fill-opacity:1"
   transform="translate(-157.33334,208)">
			<path
   id="path230"
   style="fill:url(#radialGradient243);fill-opacity:1"
   d="m 1002.4155,-203.88405 c -141.15899,0 -255.99999,114.841012 -255.99999,256.000012 0,141.158988 114.841,255.999988 255.99999,255.999988 141.159,0 256,-114.841 256,-255.999988 0,-141.159 -114.841,-256.000012 -256,-256.000012 z m 0,474.316 c -120.37999,0 -218.31599,-97.936 -218.31599,-218.315988 0,-120.38 97.936,-218.316012 218.31599,-218.316012 120.38,0 218.316,97.936012 218.316,218.316012 0,120.379988 -97.936,218.315988 -218.316,218.315988 z m 121.6564,-142.66639 c -1.4962,-10.68443 -11.3782,-18.13754 -22.0578,-16.63718 -10.6847,1.49617 -18.1333,11.37108 -16.6372,22.05809 l 2.0932,14.94911 h -20.9502 c -10.7896,0 -19.5363,8.74706 -19.5363,19.53631 0,10.78957 8.7467,19.53631 19.5363,19.53631 h 43.4147 c 11.87,0 20.9908,-10.50963 19.3476,-22.24644 z m -3.9257,-170.654836 c -31.3989,0 -56.9441,25.546139 -56.9441,56.945042 0,31.398904 25.5452,56.944075 56.9441,56.944075 31.3989,0 56.945,-25.545171 56.945,-56.944075 0,-31.398903 -25.5452,-56.945042 -56.945,-56.945042 z m 0,76.20495 c -10.6209,0 -19.2599,-8.63998 -19.2599,-19.259908 0,-10.6199277 8.6399,-19.2611975 19.2599,-19.2611975 10.6199,0 19.2609,8.6412698 19.2609,19.2611975 0,10.619928 -8.64,19.259908 -19.2609,19.259908 z m -117.661,43.050894 h -18.96417 c -0.81274,-2.377937 -1.76676,-4.687823 -2.86784,-6.916757 L 994.06517,56.03783 c 7.35793,-7.356996 7.35793,-19.287967 0,-26.646253 -7.357,-7.356996 -19.28797,-7.356996 -26.64593,0 l -13.41005,13.410046 c -2.2299,-1.099792 -4.54107,-2.054773 -6.91901,-2.867845 V 20.969621 c 0,-10.405775 -8.43615,-18.8419226 -18.84192,-18.8419226 -10.4061,0 -18.84225,8.4361476 -18.84225,18.8419226 v 18.964157 c -2.37793,0.813072 -4.68879,1.767085 -6.91901,2.867845 L 889.07727,29.391577 c -7.35699,-7.356996 -19.28828,-7.356996 -26.64625,0 -7.35796,7.356996 -7.35796,19.288289 0,26.646253 L 875.843,69.449811 c -1.09979,2.229901 -2.05477,4.539787 -2.86784,6.916757 h -18.96513 c -10.40577,0 -18.84192,8.436147 -18.84192,18.842245 0,10.405777 8.43615,18.841917 18.84192,18.841917 h 18.96416 c 0.81307,2.37794 1.76709,4.68912 2.86784,6.91902 l -13.41004,13.41198 c -7.35796,7.357 -7.35796,19.28797 0,26.64593 7.36022,7.35797 19.28829,7.35797 26.64625,0 l 13.41198,-13.41198 c 2.2299,1.10012 4.53979,2.0551 6.91676,2.86817 v 18.96383 c 0,10.4061 8.43615,18.84192 18.84224,18.84192 10.40578,0 18.84193,-8.43582 18.84193,-18.84192 v -18.96383 c 2.37793,-0.81307 4.68814,-1.76709 6.91708,-2.86817 l 13.41198,13.41198 c 7.35796,7.35797 19.28796,7.35797 26.64593,0 7.35796,-7.357 7.35796,-19.28797 0,-26.64593 l -13.41198,-13.41198 c 1.10011,-2.2299 2.05509,-4.54108 2.86784,-6.91902 h 18.9642 c 10.4061,0 18.8419,-8.43614 18.8419,-18.841917 0,-10.406098 -8.4358,-18.842245 -18.8429,-18.842245 z m -74.23694,39.568002 c -11.42816,0 -20.72608,-9.29792 -20.72608,-20.725757 0,-11.428163 9.29792,-20.726082 20.72608,-20.726082 11.42784,0 20.72576,9.297919 20.72576,20.726082 0,11.427837 -9.29792,20.725757 -20.72576,20.725757 z M 1034.7165,-88.693198 a 19.433263,19.433263 0 0 0 -13.7448,5.68828 l -25.90865,25.90865 a 19.433263,19.433263 0 0 0 0,27.483515 19.433263,19.433263 0 0 0 27.48355,0 l 25.9086,-25.908651 a 19.433263,19.433263 0 0 0 0,-27.483514 19.433263,19.433263 0 0 0 -13.7387,-5.68828 z m -79.21243,-34.897592 c -12.9998,-0.36058 -41.82112,1.74547 -64.40943,24.333782 -30.11786,30.117856 -23.81744,71.319745 -23.81744,71.319745 a 19.421167,19.421167 0 0 0 21.88974,16.585897 19.421167,19.421167 0 0 0 16.58589,-21.896184 c 0,0 -2.5737,-23.164976 12.80629,-38.544972 15.37871,-15.378706 38.54497,-12.806289 38.54497,-12.806289 a 19.421167,19.421167 0 0 0 21.89586,-16.585899 19.421167,19.421167 0 0 0 -16.58557,-21.88973 c 0,0 -2.57726,-0.39638 -6.91031,-0.51635 z" />
			
			
			
			
		</g>
	</g>
</g></g></g><g
       id="g243"
       style="font-weight:800;font-size:39.5435px;font-family:'Geist Mono';-inkscape-font-specification:'Geist Mono Ultra-Bold';letter-spacing:0px;fill:#f9f9f9;stroke-width:0.337019"
       aria-label="CAMBRIAN"
       transform="translate(322.46873,-1.2047693)"><path
         style="font-weight:bold;font-family:'Space Mono';-inkscape-font-specification:'Space Mono Bold';fill:#f9f9f9"
         d="m 1372.7019,1246.3866 q 1.5026,0 2.4517,-0.4349 0.9885,-0.4746 1.5026,-1.2259 0.5536,-0.7909 0.7513,-1.7794 0.1978,-1.0282 0.1978,-2.0959 v -0.7117 h 5.2197 v 0.7117 q 0,4.943 -2.6099,7.6319 -2.5703,2.6495 -7.5132,2.6495 -4.7453,0 -7.5133,-2.8867 -2.7681,-2.8867 -2.7681,-8.4228 v -6.1688 q 0,-2.6494 0.7118,-4.7452 0.7118,-2.1353 2.0563,-3.5589 1.3445,-1.4631 3.2426,-2.2144 1.898,-0.7909 4.2707,-0.7909 2.4517,0 4.3497,0.7118 1.8981,0.7118 3.1635,2.0562 1.305,1.3445 1.9377,3.2426 0.6722,1.8981 0.6722,4.2707 v 0.7118 h -5.2197 v -0.7118 q 0,-0.9886 -0.2373,-1.9772 -0.2373,-0.9886 -0.7909,-1.7794 -0.5536,-0.7909 -1.5026,-1.2654 -0.9491,-0.5141 -2.3726,-0.5141 -1.305,0 -2.254,0.5141 -0.9491,0.4745 -1.5818,1.3445 -0.6327,0.8304 -0.949,1.9771 -0.2768,1.1072 -0.2768,2.3331 v 6.9597 q 0,1.3444 0.2768,2.4912 0.2768,1.1072 0.87,1.9376 0.5931,0.8304 1.5421,1.305 0.9886,0.4349 2.3727,0.4349 z"
         id="path234" /><path
         style="font-weight:bold;font-family:'Space Mono';-inkscape-font-specification:'Space Mono Bold';letter-spacing:1.77824px;fill:#f9f9f9"
         d="m 1401.529,1244.6467 h -9.4113 l -1.3445,5.9315 h -5.457 l 6.6038,-27.6804 h 9.8068 l 6.6037,27.6804 h -5.457 z m -8.3041,-4.9825 h 7.1574 l -3.203,-14.1565 h -0.7118 z"
         id="path235" /><path
         style="font-weight:bold;font-family:'Space Mono';-inkscape-font-specification:'Space Mono Bold';letter-spacing:1.48187px;fill:#f9f9f9"
         d="m 1411.5719,1222.8978 h 9.1741 l 1.5817,20.7999 v 4.0334 h 0.949 v -4.0334 l 1.5818,-20.7999 h 9.1741 v 27.6804 h -4.7453 v -18.5063 l 0.4746,-6.327 h -0.9491 l -2.0562,24.8333 h -7.8296 l -2.1354,-24.8333 h -0.949 l 0.4745,6.327 v 18.5063 h -4.7452 z"
         id="path236" /><path
         style="font-weight:bold;font-family:'Space Mono';-inkscape-font-specification:'Space Mono Bold';letter-spacing:-0.987908px;fill:#f9f9f9"
         d="m 1438.2034,1245.5958 h 2.6098 v -17.7155 h -2.6098 v -4.9825 h 12.1398 q 1.9772,0 3.4799,0.5536 1.5422,0.5536 2.5703,1.5027 1.0677,0.949 1.5817,2.2935 0.5536,1.3049 0.5536,2.8471 v 0.4745 q 0,2.3726 -1.3444,3.7962 -1.305,1.4236 -3.3217,1.9772 v 0.7118 q 2.0167,0.5536 3.3217,2.0167 1.3444,1.4236 1.3444,3.7962 v 0.4745 q 0,1.5422 -0.5536,2.8867 -0.514,1.3049 -1.5817,2.2935 -1.0281,0.949 -2.5703,1.5026 -1.5027,0.5536 -3.4799,0.5536 h -12.1398 z m 7.8296,0 h 3.7962 q 1.6608,0 2.6889,-0.7118 1.0282,-0.7118 1.0282,-2.3726 v -0.2373 q 0,-1.6608 -1.0282,-2.3726 -1.0281,-0.7118 -2.6889,-0.7118 h -3.7962 z m 0,-11.3886 h 3.7962 q 1.6608,0 2.6889,-0.6722 1.0282,-0.7118 1.0282,-2.3726 v -0.2373 q 0,-1.6608 -1.0282,-2.333 -1.0281,-0.7118 -2.6889,-0.7118 h -3.7962 z"
         id="path237" /><path
         style="font-weight:bold;font-family:'Space Mono';-inkscape-font-specification:'Space Mono Bold';letter-spacing:-1.48187px;fill:#f9f9f9"
         d="m 1481.0692,1250.5782 h -5.2198 v -8.3041 q 0,-0.949 -0.514,-1.5422 -0.4745,-0.5931 -1.6213,-0.5931 h -6.0106 v 10.4394 h -5.2198 v -27.6804 h 10.5977 q 2.1354,0 3.7566,0.5932 1.6213,0.5931 2.689,1.6608 1.1072,1.0281 1.6608,2.4121 0.5932,1.3841 0.5932,2.9658 v 0.949 q 0,1.7004 -0.9095,3.2031 -0.9095,1.4631 -2.8076,2.2539 v 0.7118 q 1.384,0.1582 2.1749,1.0677 0.8304,0.9095 0.8304,2.2935 z m -13.3657,-15.4219 h 4.9825 q 1.8981,0 2.8866,-0.87 0.9886,-0.9095 0.9886,-2.5308 v -0.4745 q 0,-1.384 -0.9886,-2.3726 -0.9885,-1.0281 -2.8866,-1.0281 h -4.9825 z"
         id="path238" /><path
         style="font-weight:bold;font-family:'Space Mono';-inkscape-font-specification:'Space Mono Bold';fill:#f9f9f9"
         d="m 1485.1629,1222.8978 h 18.5064 v 4.9825 h -6.6433 v 17.7155 h 6.6433 v 4.9824 h -18.5064 v -4.9824 h 6.6433 v -17.7155 h -6.6433 z"
         id="path239" /><path
         style="font-weight:bold;font-family:'Space Mono';-inkscape-font-specification:'Space Mono Bold';letter-spacing:0.493956px;fill:#f9f9f9"
         d="m 1523.3224,1244.6467 h -9.4114 l -1.3444,5.9315 h -5.457 l 6.6037,-27.6804 h 9.8068 l 6.6038,27.6804 h -5.457 z m -8.3041,-4.9825 h 7.1573 l -3.203,-14.1565 h -0.7118 z"
         id="path240" /><path
         style="font-weight:bold;font-family:'Space Mono';-inkscape-font-specification:'Space Mono Bold';fill:#f9f9f9"
         d="m 1547.0679,1247.9684 h 0.7118 v -25.0706 h 5.2197 v 27.6804 h -10.2022 l -3.2426,-25.0705 h -0.7118 v 25.0705 h -5.2197 v -27.6804 h 10.2022 z"
         id="path241" /></g></g><style
     type="text/css"
     id="style1941">
	.st0{fill:none;stroke:#000000;stroke-width:2;stroke-linecap:round;stroke-linejoin:round;stroke-miterlimit:10;}
</style><style
     type="text/css"
     id="style1941-0">
	.st0{fill:none;stroke:#000000;stroke-width:2;stroke-linecap:round;stroke-linejoin:round;stroke-miterlimit:10;}
</style><style
     type="text/css"
     id="style1941-7">
	.st0{fill:none;stroke:#000000;stroke-width:2;stroke-linecap:round;stroke-linejoin:round;stroke-miterlimit:10;}
</style><style
     type="text/css"
     id="style22485">
	.st0{fill:none;stroke:#6C3DB7;stroke-width:4;stroke-linecap:round;stroke-linejoin:round;stroke-miterlimit:10;}
	.st1{fill:none;stroke:#1F992A;stroke-width:4;stroke-linecap:round;stroke-linejoin:round;stroke-miterlimit:10;}
	.st2{fill:none;stroke:#6A83BA;stroke-width:4;stroke-linecap:round;stroke-linejoin:round;stroke-miterlimit:10;}
	.st3{fill:#8A8AFF;stroke:#8A8AFF;stroke-width:2;stroke-linecap:round;stroke-linejoin:round;stroke-miterlimit:10;}
	.st4{fill:#6C3DB7;stroke:#6C3DB7;stroke-width:2;stroke-linecap:round;stroke-linejoin:round;stroke-miterlimit:10;}
	.st5{fill:#A576FF;stroke:#A576FF;stroke-width:2;stroke-linecap:round;stroke-linejoin:round;stroke-miterlimit:10;}
	.st6{fill:#F2BB41;stroke:#F2BB41;stroke-width:2;stroke-linecap:round;stroke-linejoin:round;stroke-miterlimit:10;}
	.st7{fill:#E08838;stroke:#E08838;stroke-width:2;stroke-linecap:round;stroke-linejoin:round;stroke-miterlimit:10;}
	.st8{fill:#1F992A;stroke:#1F992A;stroke-width:2;stroke-linecap:round;stroke-linejoin:round;stroke-miterlimit:10;}
	.st9{fill:#5EC11E;stroke:#5EC11E;stroke-width:2;stroke-linecap:round;stroke-linejoin:round;stroke-miterlimit:10;}
	.st10{fill:#E3FAFF;stroke:#E3FAFF;stroke-width:2;stroke-linecap:round;stroke-linejoin:round;stroke-miterlimit:10;}
	.st11{fill:#FF5093;stroke:#FF5093;stroke-width:2;stroke-linecap:round;stroke-linejoin:round;stroke-miterlimit:10;}
	.st12{fill:#B7257F;stroke:#B7257F;stroke-width:2;stroke-linecap:round;stroke-linejoin:round;stroke-miterlimit:10;}
	.st13{fill:#5189E5;stroke:#5189E5;stroke-width:2;stroke-linecap:round;stroke-linejoin:round;stroke-miterlimit:10;}
	.st14{fill:#6EBAFF;stroke:#6EBAFF;stroke-width:2;stroke-linecap:round;stroke-linejoin:round;stroke-miterlimit:10;}
	.st15{fill:#EDD977;stroke:#EDD977;stroke-width:2;stroke-linecap:round;stroke-linejoin:round;stroke-miterlimit:10;}
	.st16{fill:#8C43FF;stroke:#8C43FF;stroke-width:2;stroke-linecap:round;stroke-linejoin:round;stroke-miterlimit:10;}
	.st17{fill:#5252BA;stroke:#5252BA;stroke-width:2;stroke-linecap:round;stroke-linejoin:round;stroke-miterlimit:10;}
	.st18{fill:none;stroke:#E3FAFF;stroke-width:4;stroke-linecap:round;stroke-linejoin:round;stroke-miterlimit:10;}
	.st19{fill:#354C75;stroke:#354C75;stroke-width:2;stroke-linecap:round;stroke-linejoin:round;stroke-miterlimit:10;}
</style><style
     type="text/css"
     id="style23106">
	.st0{fill:none;stroke:#000000;stroke-width:2;stroke-linecap:round;stroke-linejoin:round;stroke-miterlimit:10;}
	.st1{fill:none;stroke:#000000;stroke-width:2;stroke-linejoin:round;stroke-miterlimit:10;}
</style><style
     type="text/css"
     id="style1941-1">
	.st0{fill:none;stroke:#000000;stroke-width:2;stroke-linecap:round;stroke-linejoin:round;stroke-miterlimit:10;}
</style><style
     type="text/css"
     id="style1941-0-8">
	.st0{fill:none;stroke:#000000;stroke-width:2;stroke-linecap:round;stroke-linejoin:round;stroke-miterlimit:10;}
</style><style
     type="text/css"
     id="style1941-7-7">
	.st0{fill:none;stroke:#000000;stroke-width:2;stroke-linecap:round;stroke-linejoin:round;stroke-miterlimit:10;}
</style><style
     type="text/css"
     id="style22485-9">
	.st0{fill:none;stroke:#6C3DB7;stroke-width:4;stroke-linecap:round;stroke-linejoin:round;stroke-miterlimit:10;}
	.st1{fill:none;stroke:#1F992A;stroke-width:4;stroke-linecap:round;stroke-linejoin:round;stroke-miterlimit:10;}
	.st2{fill:none;stroke:#6A83BA;stroke-width:4;stroke-linecap:round;stroke-linejoin:round;stroke-miterlimit:10;}
	.st3{fill:#8A8AFF;stroke:#8A8AFF;stroke-width:2;stroke-linecap:round;stroke-linejoin:round;stroke-miterlimit:10;}
	.st4{fill:#6C3DB7;stroke:#6C3DB7;stroke-width:2;stroke-linecap:round;stroke-linejoin:round;stroke-miterlimit:10;}
	.st5{fill:#A576FF;stroke:#A576FF;stroke-width:2;stroke-linecap:round;stroke-linejoin:round;stroke-miterlimit:10;}
	.st6{fill:#F2BB41;stroke:#F2BB41;stroke-width:2;stroke-linecap:round;stroke-linejoin:round;stroke-miterlimit:10;}
	.st7{fill:#E08838;stroke:#E08838;stroke-width:2;stroke-linecap:round;stroke-linejoin:round;stroke-miterlimit:10;}
	.st8{fill:#1F992A;stroke:#1F992A;stroke-width:2;stroke-linecap:round;stroke-linejoin:round;stroke-miterlimit:10;}
	.st9{fill:#5EC11E;stroke:#5EC11E;stroke-width:2;stroke-linecap:round;stroke-linejoin:round;stroke-miterlimit:10;}
	.st10{fill:#E3FAFF;stroke:#E3FAFF;stroke-width:2;stroke-linecap:round;stroke-linejoin:round;stroke-miterlimit:10;}
	.st11{fill:#FF5093;stroke:#FF5093;stroke-width:2;stroke-linecap:round;stroke-linejoin:round;stroke-miterlimit:10;}
	.st12{fill:#B7257F;stroke:#B7257F;stroke-width:2;stroke-linecap:round;stroke-linejoin:round;stroke-miterlimit:10;}
	.st13{fill:#5189E5;stroke:#5189E5;stroke-width:2;stroke-linecap:round;stroke-linejoin:round;stroke-miterlimit:10;}
	.st14{fill:#6EBAFF;stroke:#6EBAFF;stroke-width:2;stroke-linecap:round;stroke-linejoin:round;stroke-miterlimit:10;}
	.st15{fill:#EDD977;stroke:#EDD977;stroke-width:2;stroke-linecap:round;stroke-linejoin:round;stroke-miterlimit:10;}
	.st16{fill:#8C43FF;stroke:#8C43FF;stroke-width:2;stroke-linecap:round;stroke-linejoin:round;stroke-miterlimit:10;}
	.st17{fill:#5252BA;stroke:#5252BA;stroke-width:2;stroke-linecap:round;stroke-linejoin:round;stroke-miterlimit:10;}
	.st18{fill:none;stroke:#E3FAFF;stroke-width:4;stroke-linecap:round;stroke-linejoin:round;stroke-miterlimit:10;}
	.st19{fill:#354C75;stroke:#354C75;stroke-width:2;stroke-linecap:round;stroke-linejoin:round;stroke-miterlimit:10;}
</style><style
     type="text/css"
     id="style23106-2">
	.st0{fill:none;stroke:#000000;stroke-width:2;stroke-linecap:round;stroke-linejoin:round;stroke-miterlimit:10;}
	.st1{fill:none;stroke:#000000;stroke-width:2;stroke-linejoin:round;stroke-miterlimit:10;}
</style><style
     type="text/css"
     id="style4736">
<![CDATA[
	.st0{fill:#D1D1D1;}
	.st1{fill:#454545;}
]]>
</style><style
     type="text/css"
     id="style1">
	.st0{fill:none;stroke:#000000;stroke-width:2;stroke-linecap:round;stroke-linejoin:round;stroke-miterlimit:10;}
</style><style
     type="text/css"
     id="style1-4">
	.linesandangles_een{fill:#111918;}
</style><style
     type="text/css"
     id="style1-2">
	.st0{fill:#000000;}
</style><style
     type="text/css"
     id="style1-5">
	.st0{fill:#000000;}
</style><style
     type="text/css"
     id="style1-1">
	.st0{fill:#000000;}
</style><style
     type="text/css"
     id="style1-0">
	.st0{fill:#F26E91;}
	.st1{fill:#00A779;}
	.st2{fill:#C4FFC9;}
	.st3{fill:#AB630A;}
	.st4{fill:#C98C40;}
	.st5{fill:#15AA78;}
	.st6{fill:#FF9000;}
	.st7{fill:#FCEECF;}
	.st8{fill:#FFE940;}
	.st9{fill:#F0E3CE;}
	.st10{fill:#FFB5C5;}
	.st11{fill:#91EDFF;}
	.st12{fill:#7191F0;}
	.st13{fill:#363636;}
	.st14{fill:#565656;}
	.st15{fill:#F3DF4D;}
	.st16{fill:#CD4A77;}
	.st17{fill:#577AE6;}
	.st18{fill:#F4D100;}
</style><style
     type="text/css"
     id="style1-56">
	.st0{fill:#000000;}
</style></svg>
